<mxfile host="Electron" modified="2024-03-24T17:19:24.038Z" agent="Mozilla/5.0 (Windows NT 10.0; Win64; x64) AppleWebKit/537.36 (KHTML, like Gecko) draw.io/23.0.2 Chrome/120.0.6099.109 Electron/28.1.0 Safari/537.36" etag="CSh1RheETeCpBCwZID6D" version="23.0.2" type="device" pages="2">
  <diagram name="Home Desktop" id="ymlLQ6cuto8j2UtObJxO">
    <mxGraphModel dx="1900" dy="621" grid="1" gridSize="10" guides="1" tooltips="1" connect="1" arrows="1" fold="1" page="1" pageScale="1" pageWidth="850" pageHeight="1100" math="0" shadow="0">
      <root>
        <mxCell id="0" />
        <mxCell id="1" parent="0" />
        <mxCell id="9gPz6wlH9H_RJWPSHjjy-1" value="" style="strokeWidth=1;shadow=0;dashed=0;align=center;html=1;shape=mxgraph.mockup.containers.browserWindow;rSize=0;strokeColor=#666666;strokeColor2=#008cff;strokeColor3=#c4c4c4;mainText=,;recursiveResize=0;movable=1;resizable=1;rotatable=1;deletable=1;editable=1;locked=0;connectable=1;" parent="1" vertex="1">
          <mxGeometry x="-140" y="280" width="1040" height="1250" as="geometry" />
        </mxCell>
        <mxCell id="9gPz6wlH9H_RJWPSHjjy-2" value="Home" style="strokeWidth=1;shadow=0;dashed=0;align=center;html=1;shape=mxgraph.mockup.containers.anchor;fontSize=17;fontColor=#666666;align=left;whiteSpace=wrap;" parent="9gPz6wlH9H_RJWPSHjjy-1" vertex="1">
          <mxGeometry x="60" y="12" width="110" height="26" as="geometry" />
        </mxCell>
        <mxCell id="9gPz6wlH9H_RJWPSHjjy-3" value="https://www.draw.io" style="strokeWidth=1;shadow=0;dashed=0;align=center;html=1;shape=mxgraph.mockup.containers.anchor;rSize=0;fontSize=17;fontColor=#666666;align=left;" parent="9gPz6wlH9H_RJWPSHjjy-1" vertex="1">
          <mxGeometry x="130" y="60" width="250" height="26" as="geometry" />
        </mxCell>
        <mxCell id="9gPz6wlH9H_RJWPSHjjy-4" value="" style="rounded=0;whiteSpace=wrap;html=1;fillColor=#414042;" parent="9gPz6wlH9H_RJWPSHjjy-1" vertex="1">
          <mxGeometry y="110" width="1040" height="270" as="geometry" />
        </mxCell>
        <mxCell id="9gPz6wlH9H_RJWPSHjjy-6" value="Coronavirus (COVID-19)" style="text;strokeColor=none;fillColor=none;html=1;fontSize=29;fontStyle=1;verticalAlign=middle;align=left;fontColor=#FFCC3B;" parent="9gPz6wlH9H_RJWPSHjjy-1" vertex="1">
          <mxGeometry x="46" y="210" width="404" height="51.25" as="geometry" />
        </mxCell>
        <mxCell id="9gPz6wlH9H_RJWPSHjjy-7" value="Government Response to COVID-19" style="text;html=1;strokeColor=none;fillColor=none;align=left;verticalAlign=middle;whiteSpace=wrap;rounded=0;fontStyle=0;fontSize=15;fontColor=#ffffff;" parent="9gPz6wlH9H_RJWPSHjjy-1" vertex="1">
          <mxGeometry x="46" y="261.25" width="310" height="22.5" as="geometry" />
        </mxCell>
        <mxCell id="btCMdJgDN0vfdXvJSdrO-27" value="" style="rounded=0;whiteSpace=wrap;html=1;fillColor=#414042;" vertex="1" parent="9gPz6wlH9H_RJWPSHjjy-1">
          <mxGeometry y="1021" width="1040" height="230" as="geometry" />
        </mxCell>
        <mxCell id="btCMdJgDN0vfdXvJSdrO-42" value="Copyright Developer @ 2024" style="text;html=1;strokeColor=none;fillColor=none;align=center;verticalAlign=middle;whiteSpace=wrap;rounded=0;fontColor=#ffffff;" vertex="1" parent="9gPz6wlH9H_RJWPSHjjy-1">
          <mxGeometry x="435" y="1188.77" width="170" height="30" as="geometry" />
        </mxCell>
        <mxCell id="btCMdJgDN0vfdXvJSdrO-43" value="" style="group" vertex="1" connectable="0" parent="9gPz6wlH9H_RJWPSHjjy-1">
          <mxGeometry x="156" y="718" width="185.45" height="170" as="geometry" />
        </mxCell>
        <mxCell id="btCMdJgDN0vfdXvJSdrO-11" value="" style="rounded=1;whiteSpace=wrap;html=1;fillColor=#647687;fontColor=#ffffff;strokeColor=none;opacity=10;" vertex="1" parent="btCMdJgDN0vfdXvJSdrO-43">
          <mxGeometry width="185.45" height="170" as="geometry" />
        </mxCell>
        <mxCell id="btCMdJgDN0vfdXvJSdrO-12" value="Alert &amp;amp; News" style="text;html=1;strokeColor=none;fillColor=none;align=center;verticalAlign=middle;whiteSpace=wrap;rounded=0;fontStyle=1;fontSize=14;" vertex="1" parent="btCMdJgDN0vfdXvJSdrO-43">
          <mxGeometry x="3" y="112.81999999999994" width="180" height="46.36" as="geometry" />
        </mxCell>
        <mxCell id="btCMdJgDN0vfdXvJSdrO-24" value="" style="shape=image;verticalLabelPosition=bottom;labelBackgroundColor=default;verticalAlign=top;aspect=fixed;imageAspect=0;image=data:image/svg+xml,PHN2ZyB4bWxuczp4bGluaz0iaHR0cDovL3d3dy53My5vcmcvMTk5OS94bGluayIgeG1sbnM9Imh0dHA6Ly93d3cudzMub3JnLzIwMDAvc3ZnIiB4bWw6c3BhY2U9InByZXNlcnZlIiBzdHlsZT0iZW5hYmxlLWJhY2tncm91bmQ6bmV3IDAgMCA4MDAgODAwOyIgdmlld0JveD0iMCAwIDgwMCA4MDAiIHk9IjBweCIgeD0iMHB4IiBpZD0iX3gzMV8tb3V0bGluZS1leHBhbmQiIHZlcnNpb249IjEuMSI+JiN4YTs8c3R5bGUgdHlwZT0idGV4dC9jc3MiPiYjeGE7CS5zdDB7b3BhY2l0eTowLjM7ZmlsbDojMDA5NjU4O30mI3hhOwkuc3Qxe29wYWNpdHk6MC41O2ZpbGw6I0ZGQ0MzQjt9JiN4YTsJLnN0MntmaWxsOiMwMDk2NTg7fSYjeGE7CS5zdDN7ZmlsbDojRkZDQzNCO30mI3hhOwkuc3Q0e2ZpbGw6IzQxNDA0Mjt9JiN4YTs8L3N0eWxlPiYjeGE7PHBhdGggZD0iTTQ3NSw3NzVIMTUwYy0yNy42LDAtNTAtMjIuNC01MC01MFY3NWMwLTI3LjYsMjIuNC01MCw1MC01MGgzMjVjMjcuNiwwLDUwLDIyLjQsNTAsNTB2NjUwJiMxMDsmIzk7QzUyNSw3NTIuNiw1MDIuNiw3NzUsNDc1LDc3NUw0NzUsNzc1eiIgY2xhc3M9InN0MCIvPiYjeGE7PHBhdGggZD0iTTUyNSw2MTIuNWgyNTB2LTMwMEg2MDBWMTc1Yy00MS40LDAtNzUsMzMuNi03NSw3NVY2MTIuNXoiIGNsYXNzPSJzdDEiLz4mI3hhOzxwYXRoIGQ9Ik0xMDAsMzUwYzAsMjAuNy0xNi44LDM3LjUtMzcuNSwzNy41UzI1LDM3MC43LDI1LDM1MHMxNi44LTM3LjUsMzcuNS0zNy41UzEwMCwzMjkuMywxMDAsMzUwTDEwMCwzNTB6IiBjbGFzcz0ic3QxIi8+JiN4YTs8cGF0aCBkPSJNMTAwLDQyNWMwLDIwLjctMTYuOCwzNy41LTM3LjUsMzcuNVMyNSw0NDUuNywyNSw0MjVzMTYuOC0zNy41LDM3LjUtMzcuNVMxMDAsNDA0LjMsMTAwLDQyNUwxMDAsNDI1eiIgY2xhc3M9InN0MSIvPiYjeGE7PHBhdGggZD0iTTEwMCw1MDBjMCwyMC43LTE2LjgsMzcuNS0zNy41LDM3LjVTMjUsNTIwLjcsMjUsNTAwczE2LjgtMzcuNSwzNy41LTM3LjVTMTAwLDQ3OS4zLDEwMCw1MDBMMTAwLDUwMHoiIGNsYXNzPSJzdDEiLz4mI3hhOzxwYXRoIGQ9Ik0xMDAsNTc1YzAsMjAuNy0xNi44LDM3LjUtMzcuNSwzNy41UzI1LDU5NS43LDI1LDU3NXMxNi44LTM3LjUsMzcuNS0zNy41UzEwMCw1NTQuMywxMDAsNTc1TDEwMCw1NzV6IiBjbGFzcz0ic3QxIi8+JiN4YTs8cGF0aCBkPSJNNTI1LDEwMEgxMDBWNzVjMC0yNy42LDIyLjQtNTAsNTAtNTBoMzI1YzI3LjYsMCw1MCwyMi40LDUwLDUwVjEwMHoiIGNsYXNzPSJzdDIiLz4mI3hhOzxwYXRoIGQ9Ik0xMDAsNzAwaDQyNXYyNWMwLDI3LjYtMjIuNCw1MC01MCw1MEgxNTBjLTI3LjYsMC01MC0yMi40LTUwLTUwVjcwMHoiIGNsYXNzPSJzdDIiLz4mI3hhOzxyZWN0IGhlaWdodD0iMTAwIiB3aWR0aD0iMTI1IiBjbGFzcz0ic3QzIiB5PSIxODcuNSIgeD0iMTUwIi8+JiN4YTs8cmVjdCBoZWlnaHQ9IjEwMCIgd2lkdGg9IjEyNSIgY2xhc3M9InN0MyIgeT0iMzUwIiB4PSIzNTAiLz4mI3hhOzxyZWN0IGhlaWdodD0iMjUiIHdpZHRoPSIxNzUiIGNsYXNzPSJzdDQiIHk9IjE3NSIgeD0iMzEyLjUiLz4mI3hhOzxyZWN0IGhlaWdodD0iMjUiIHdpZHRoPSIxNzUiIGNsYXNzPSJzdDQiIHk9IjIyNSIgeD0iMzEyLjUiLz4mI3hhOzxyZWN0IGhlaWdodD0iMjUiIHdpZHRoPSIxMjUiIGNsYXNzPSJzdDQiIHk9IjI3NSIgeD0iMzEyLjUiLz4mI3hhOzxyZWN0IGhlaWdodD0iMTAwIiB3aWR0aD0iMTI1IiBjbGFzcz0ic3QzIiB5PSI1MTIuNSIgeD0iMTUwIi8+JiN4YTs8cmVjdCBoZWlnaHQ9IjI1IiB3aWR0aD0iMTc1IiBjbGFzcz0ic3Q0IiB5PSI1MDAiIHg9IjMxMi41Ii8+JiN4YTs8cmVjdCBoZWlnaHQ9IjI1IiB3aWR0aD0iMTc1IiBjbGFzcz0ic3Q0IiB5PSI1NTAiIHg9IjMxMi41Ii8+JiN4YTs8cmVjdCBoZWlnaHQ9IjI1IiB3aWR0aD0iMjUiIGNsYXNzPSJzdDQiIHk9IjYwMCIgeD0iMzEyLjUiLz4mI3hhOzxyZWN0IGhlaWdodD0iMjUiIHdpZHRoPSIxNzUiIGNsYXNzPSJzdDQiIHk9IjMzNy41IiB4PSIxMzcuNSIvPiYjeGE7PHJlY3QgaGVpZ2h0PSIyNSIgd2lkdGg9IjE3NSIgY2xhc3M9InN0NCIgeT0iMzg3LjUiIHg9IjEzNy41Ii8+JiN4YTs8cmVjdCBoZWlnaHQ9IjI1IiB3aWR0aD0iMTc1IiBjbGFzcz0ic3Q0IiB5PSI0MzcuNSIgeD0iMTM3LjUiLz4mI3hhOzxyZWN0IGhlaWdodD0iMjUiIHdpZHRoPSIyNSIgY2xhc3M9InN0NCIgeT0iMjc1IiB4PSI0NjIuNSIvPiYjeGE7PHJlY3QgaGVpZ2h0PSIyNSIgd2lkdGg9IjI1IiBjbGFzcz0ic3Q0IiB5PSI2MDAiIHg9IjM2Mi41Ii8+JiN4YTs8cmVjdCBoZWlnaHQ9IjI1IiB3aWR0aD0iMjUiIGNsYXNzPSJzdDQiIHk9IjYwMCIgeD0iNDEyLjUiLz4mI3hhOzxyZWN0IGhlaWdodD0iMjUiIHdpZHRoPSIyNSIgY2xhc3M9InN0NCIgeT0iNjAwIiB4PSI0NjIuNSIvPiYjeGE7PC9zdmc+;" vertex="1" parent="btCMdJgDN0vfdXvJSdrO-43">
          <mxGeometry x="48.28" y="23.370000000000005" width="89.45" height="89.45" as="geometry" />
        </mxCell>
        <mxCell id="btCMdJgDN0vfdXvJSdrO-44" value="" style="group" vertex="1" connectable="0" parent="9gPz6wlH9H_RJWPSHjjy-1">
          <mxGeometry x="429" y="718" width="185.45000000000005" height="170" as="geometry" />
        </mxCell>
        <mxCell id="btCMdJgDN0vfdXvJSdrO-15" value="" style="rounded=1;whiteSpace=wrap;html=1;fillColor=#647687;fontColor=#ffffff;strokeColor=none;opacity=10;" vertex="1" parent="btCMdJgDN0vfdXvJSdrO-44">
          <mxGeometry width="185.45" height="170" as="geometry" />
        </mxCell>
        <mxCell id="btCMdJgDN0vfdXvJSdrO-16" value="Mental Health &amp;amp; &lt;br&gt;Wellbeing" style="text;html=1;strokeColor=none;fillColor=none;align=center;verticalAlign=middle;whiteSpace=wrap;rounded=0;fontStyle=1;fontSize=14;" vertex="1" parent="btCMdJgDN0vfdXvJSdrO-44">
          <mxGeometry x="3" y="112.81999999999994" width="180" height="46.36" as="geometry" />
        </mxCell>
        <mxCell id="btCMdJgDN0vfdXvJSdrO-25" value="" style="shape=image;verticalLabelPosition=bottom;labelBackgroundColor=default;verticalAlign=top;aspect=fixed;imageAspect=0;image=data:image/svg+xml,PHN2ZyB4bWxuczp4bGluaz0iaHR0cDovL3d3dy53My5vcmcvMTk5OS94bGluayIgeG1sbnM9Imh0dHA6Ly93d3cudzMub3JnLzIwMDAvc3ZnIiB4bWw6c3BhY2U9InByZXNlcnZlIiBzdHlsZT0iZW5hYmxlLWJhY2tncm91bmQ6bmV3IDAgMCA4MDAgODAwOyIgdmlld0JveD0iMCAwIDgwMCA4MDAiIHk9IjBweCIgeD0iMHB4IiBpZD0iX3gzMV8tb3V0bGluZS1leHBhbmQiIHZlcnNpb249IjEuMSI+JiN4YTs8c3R5bGUgdHlwZT0idGV4dC9jc3MiPiYjeGE7CS5zdDB7ZmlsbDojMDA5NjU4O30mI3hhOwkuc3Qxe2ZpbGw6I0UwQzQ5NDt9JiN4YTsJLnN0MntmaWxsOiNGMkRBQUU7fSYjeGE7CS5zdDN7ZmlsbDojNDE0MDQyO30mI3hhOwkuc3Q0e2ZpbGw6I0QzNjc2Nzt9JiN4YTs8L3N0eWxlPiYjeGE7PHBhdGggZD0iTTM3LjUsNzc1di02Mi41YzAtNDEuNCwzMy42LTc1LDc1LTc1aDU3NWM0MS40LDAsNzUsMzMuNiw3NSw3NVY3NzVIMzcuNXoiIGNsYXNzPSJzdDAiLz4mI3hhOzxwb2x5Z29uIHBvaW50cz0iMzAwLDUzNy41IDMwMCw2MzcuNSA0MDAsNzAwIDUwMCw2MzcuNSA1MDAsNTM3LjUiIGNsYXNzPSJzdDEiLz4mI3hhOzxwYXRoIGQ9Ik01NTAsMjAwdi0xMi41SDIwMi42Yy00LjgsMC05LjUtMC40LTE0LjEtMS4zYy04LjYsMjMuOS0xMy41LDQ5LjUtMTMuNSw3Ni4zdjEwMGMwLDEyNC4zLDEwMC43LDIyNSwyMjUsMjI1JiMxMDsmIzk7czIyNS0xMDAuNywyMjUtMjI1VjI3NUM1ODMuNiwyNzUsNTUwLDI0MS40LDU1MCwyMDB6IiBjbGFzcz0ic3QyIi8+JiN4YTs8cGF0aCBkPSJNMTUwLDI3NWMtMjcuNiwwLTUwLDIyLjQtNTAsNTBzMjIuNCw1MCw1MCw1MGgyNVYyNzVIMTUweiIgY2xhc3M9InN0MSIvPiYjeGE7PHBhdGggZD0iTTY1MCwyNzVoLTI1djEwMGgyNWMyNy42LDAsNTAtMjIuNCw1MC01MFM2NzcuNiwyNzUsNjUwLDI3NXoiIGNsYXNzPSJzdDEiLz4mI3hhOzxwYXRoIGQ9Ik0yMjUsNjIuNWMtMTYsMC0yOS42LTEwLjEtMzUtMjQuM2MtNDAuMSw1LjQtNzAuMyw0Mi40LTY0LjIsODUuMmM1LjMsMzcuNCwzOS4xLDY0LjEsNzYuOSw2NC4xSDU1MFYyMDAmIzEwOyYjOTtjMCw0MS40LDMzLjYsNzUsNzUsNzV2LTEyLjVjMC0xMTAuNS04OS41LTIwMC0yMDAtMjAwSDIyNXoiIGNsYXNzPSJzdDMiLz4mI3hhOzxwYXRoIGQ9Ik0zMzcuNSw1MDBjMC0zNC41LDI4LTYyLjUsNjIuNS02Mi41czYyLjUsMjgsNjIuNSw2Mi41SDMzNy41eiIgY2xhc3M9InN0NCIvPiYjeGE7PHBvbHlnb24gcG9pbnRzPSI0NzUsMjUgNjEyLjUsMjUgNTg3LjUsMTAwIDYyNSwxMDAgNTI1LDIzNy41IDUyNSwxMTIuNSA0ODcuNSwxMTIuNSIgY2xhc3M9InN0NCIvPiYjeGE7PHBvbHlnb24gcG9pbnRzPSIyODAuNiwzNzMuNyAyNjkuNCwzNTEuMyAzMjIsMzI1IDI2OS40LDI5OC43IDI4MC42LDI3Ni4zIDM3OCwzMjUiIGNsYXNzPSJzdDMiLz4mI3hhOzxwb2x5Z29uIHBvaW50cz0iNTE5LjQsMzczLjcgNDIyLDMyNSA1MTkuNCwyNzYuMyA1MzAuNiwyOTguNyA0NzgsMzI1IDUzMC42LDM1MS4zIiBjbGFzcz0ic3QzIi8+JiN4YTs8L3N2Zz4=;" vertex="1" parent="btCMdJgDN0vfdXvJSdrO-44">
          <mxGeometry x="48.90999999999997" y="20" width="88.18" height="88.18" as="geometry" />
        </mxCell>
        <mxCell id="btCMdJgDN0vfdXvJSdrO-45" value="" style="group" vertex="1" connectable="0" parent="9gPz6wlH9H_RJWPSHjjy-1">
          <mxGeometry x="696" y="718" width="185.45000000000005" height="170" as="geometry" />
        </mxCell>
        <mxCell id="btCMdJgDN0vfdXvJSdrO-19" value="" style="rounded=1;whiteSpace=wrap;html=1;fillColor=#647687;fontColor=#ffffff;strokeColor=none;opacity=10;" vertex="1" parent="btCMdJgDN0vfdXvJSdrO-45">
          <mxGeometry width="185.45" height="170" as="geometry" />
        </mxCell>
        <mxCell id="btCMdJgDN0vfdXvJSdrO-20" value="Travelling Guide" style="text;html=1;strokeColor=none;fillColor=none;align=center;verticalAlign=middle;whiteSpace=wrap;rounded=0;fontStyle=1;fontSize=14;" vertex="1" parent="btCMdJgDN0vfdXvJSdrO-45">
          <mxGeometry x="3" y="112.81999999999994" width="180" height="46.36" as="geometry" />
        </mxCell>
        <mxCell id="btCMdJgDN0vfdXvJSdrO-26" value="" style="shape=image;verticalLabelPosition=bottom;labelBackgroundColor=default;verticalAlign=top;aspect=fixed;imageAspect=0;image=data:image/svg+xml,PHN2ZyB4bWxuczp4bGluaz0iaHR0cDovL3d3dy53My5vcmcvMTk5OS94bGluayIgeG1sbnM9Imh0dHA6Ly93d3cudzMub3JnLzIwMDAvc3ZnIiB4bWw6c3BhY2U9InByZXNlcnZlIiBzdHlsZT0iZW5hYmxlLWJhY2tncm91bmQ6bmV3IDAgMCA4MDAgODAwOyIgdmlld0JveD0iMCAwIDgwMCA4MDAiIHk9IjBweCIgeD0iMHB4IiBpZD0iX3gzMV8tb3V0bGluZS1leHBhbmQiIHZlcnNpb249IjEuMSI+JiN4YTs8c3R5bGUgdHlwZT0idGV4dC9jc3MiPiYjeGE7CS5zdDB7b3BhY2l0eTowLjU7ZmlsbDojMDA5NjU4O30mI3hhOwkuc3Qxe29wYWNpdHk6MC43O2ZpbGw6IzAwOTY1ODt9JiN4YTsJLnN0MntmaWxsOiMzQTQyNDk7fSYjeGE7CS5zdDN7ZmlsbDojNDE0MDQyO30mI3hhOwkuc3Q0e2ZpbGw6I0ZGQ0MzQjt9JiN4YTs8L3N0eWxlPiYjeGE7PHBvbHlnb24gcG9pbnRzPSIzNDcuMiwzMDEuOCAyNTMuMiw0My40IDMyMy43LDE3LjggNDg4LjIsMjUwLjUiIGNsYXNzPSJzdDAiLz4mI3hhOzxwYXRoIGQ9Ik02MCwzNTMuMmw1NjQuNy0yMDUuNWMxNC4zLTUuMiwzMC4xLTMuNiw0My4xLDQuM2w0Ny44LDI5LjFjMjYtOS40LDU0LjcsMy45LDY0LjEsMjkuOSYjMTA7JiM5O2M5LjQsMjUuOS0zLjksNTQuNi0yOS45LDY0LjFMMzUwLjUsNDIwLjRsLTI2NC44LDMuM0w2MCwzNTMuMnoiIGNsYXNzPSJzdDEiLz4mI3hhOzxwb2x5Z29uIHBvaW50cz0iNjQuMiwyMTguNiAxNy4yLDIzNS43IDYwLDM1My4yIDE1NCwzMTkiIGNsYXNzPSJzdDAiLz4mI3hhOzxwb2x5Z29uIHBvaW50cz0iMzY0LjQsMzQ4LjggNDU4LjQsNjA3LjIgNTI4LjksNTgxLjYgNTA1LjMsMjk3LjUiIGNsYXNzPSJzdDAiLz4mI3hhOzxyZWN0IGhlaWdodD0iMjUiIHdpZHRoPSI2Mi41IiBjbGFzcz0ic3QyIiB0cmFuc2Zvcm09Im1hdHJpeCgwLjkzOTggLTAuMzQxNyAwLjM0MTcgMC45Mzk4IC0yMi42Mjc3IDI0MC4xMjYzKSIgeT0iMTcxLjgiIHg9IjYzOSIvPiYjeGE7PHJlY3QgaGVpZ2h0PSIyNSIgd2lkdGg9IjI1IiBjbGFzcz0ic3QyIiB0cmFuc2Zvcm09Im1hdHJpeCgwLjkzOTcgLTAuMzQxOSAwLjM0MTkgMC45Mzk3IC00MS4wNDQ3IDIwOC4zMTk0KSIgeT0iMjA4LjEiIHg9IjU1Ny45Ii8+JiN4YTs8cmVjdCBoZWlnaHQ9IjI1IiB3aWR0aD0iMjUiIGNsYXNzPSJzdDIiIHRyYW5zZm9ybT0ibWF0cml4KDAuOTM5NyAtMC4zNDE5IDAuMzQxOSAwLjkzOTcgLTQ5LjcyMzIgMTkzLjI4NDgpIiB5PSIyMjUuMiIgeD0iNTEwLjkiLz4mI3hhOzxyZWN0IGhlaWdodD0iMjUiIHdpZHRoPSIyNSIgY2xhc3M9InN0MiIgdHJhbnNmb3JtPSJtYXRyaXgoMC45Mzk3IC0wLjM0MTkgMC4zNDE5IDAuOTM5NyAtNTguNDAzNyAxNzguMjU2MSkiIHk9IjI0Mi4zIiB4PSI0NjMuOSIvPiYjeGE7PHJlY3QgaGVpZ2h0PSIyNSIgd2lkdGg9IjI1IiBjbGFzcz0ic3QyIiB0cmFuc2Zvcm09Im1hdHJpeCgwLjkzOTcgLTAuMzQxOSAwLjM0MTkgMC45Mzk3IC02Ny4wODIzIDE2My4yMjE1KSIgeT0iMjU5LjQiIHg9IjQxNyIvPiYjeGE7PHJlY3QgaGVpZ2h0PSIyNSIgd2lkdGg9IjI1IiBjbGFzcz0ic3QyIiB0cmFuc2Zvcm09Im1hdHJpeCgwLjkzOTcgLTAuMzQxOSAwLjM0MTkgMC45Mzk3IC03NS43NjA3IDE0OC4xODczKSIgeT0iMjc2LjUiIHg9IjM3MCIvPiYjeGE7PHJlY3QgaGVpZ2h0PSIyNSIgd2lkdGg9IjI1IiBjbGFzcz0ic3QyIiB0cmFuc2Zvcm09Im1hdHJpeCgwLjkzOTcgLTAuMzQxOSAwLjM0MTkgMC45Mzk3IC04NC40MzkxIDEzMy4xNTMyKSIgeT0iMjkzLjYiIHg9IjMyMyIvPiYjeGE7PHJlY3QgaGVpZ2h0PSIyNSIgd2lkdGg9IjI1IiBjbGFzcz0ic3QyIiB0cmFuc2Zvcm09Im1hdHJpeCgwLjkzOTcgLTAuMzQxOSAwLjM0MTkgMC45Mzk3IC05My4xMTc3IDExOC4xMTg1KSIgeT0iMzEwLjciIHg9IjI3NiIvPiYjeGE7PHJlY3QgaGVpZ2h0PSIyNSIgd2lkdGg9IjI1IiBjbGFzcz0ic3QyIiB0cmFuc2Zvcm09Im1hdHJpeCgwLjkzOTYgLTAuMzQyMyAwLjM0MjMgMC45Mzk2IC0xMDEuOTAxOCAxMDMuMjM0OCkiIHk9IjMyNy44IiB4PSIyMjkiLz4mI3hhOzxyZWN0IGhlaWdodD0iMjUiIHdpZHRoPSIyNSIgY2xhc3M9InN0MiIgdHJhbnNmb3JtPSJtYXRyaXgoMC45Mzk2IC0wLjM0MjMgMC4zNDIzIDAuOTM5NiAtMTEwLjU5MzYgODguMTgzMikiIHk9IjM0NC45IiB4PSIxODIiLz4mI3hhOzxwYXRoIGQ9Ik00NTAsNjc1SDIzNy41Yy00MS40LDAtNzUtMzMuNi03NS03NXMzMy42LTc1LDc1LTc1SDMyNXYyNWgtODcuNWMtMjcuNiwwLTUwLDIyLjQtNTAsNTBzMjIuNCw1MCw1MCw1MEg0NTBWNjc1JiMxMDsmIzk7eiIgY2xhc3M9InN0MyIvPiYjeGE7PHJlY3QgaGVpZ2h0PSIyNSIgd2lkdGg9IjI1IiBjbGFzcz0ic3QzIiB5PSI2NTAiIHg9IjQ3NSIvPiYjeGE7PHBhdGggZD0iTTYzMS4zLDc2Mi41SDIzNy41di0yNWgzOTMuOGMxNy4yLDAsMzEuMy0xNCwzMS4zLTMxLjNzLTE0LTMxLjMtMzEuMy0zMS4zSDUyNXYtMjVoMTA2LjMmIzEwOyYjOTtjMzEsMCw1Ni4zLDI1LjIsNTYuMyw1Ni4zUzY2Mi4zLDc2Mi41LDYzMS4zLDc2Mi41eiIgY2xhc3M9InN0MyIvPiYjeGE7PHJlY3QgaGVpZ2h0PSIyNSIgd2lkdGg9IjEyNSIgY2xhc3M9InN0MyIgeT0iNzM3LjUiIHg9Ijg3LjUiLz4mI3hhOzxjaXJjbGUgcj0iMzcuNSIgY3k9Ijc1MCIgY3g9IjYyLjUiIGNsYXNzPSJzdDQiLz4mI3hhOzxjaXJjbGUgcj0iMzcuNSIgY3k9IjUzNy41IiBjeD0iMzUwIiBjbGFzcz0ic3Q0Ii8+JiN4YTs8L3N2Zz4=;" vertex="1" parent="btCMdJgDN0vfdXvJSdrO-45">
          <mxGeometry x="44.5" y="15.82000000000005" width="97" height="97" as="geometry" />
        </mxCell>
        <mxCell id="btCMdJgDN0vfdXvJSdrO-46" value="" style="group" vertex="1" connectable="0" parent="9gPz6wlH9H_RJWPSHjjy-1">
          <mxGeometry x="696" y="501" width="185.45000000000005" height="170" as="geometry" />
        </mxCell>
        <mxCell id="btCMdJgDN0vfdXvJSdrO-6" value="" style="rounded=1;whiteSpace=wrap;html=1;fillColor=#647687;fontColor=#ffffff;strokeColor=none;opacity=10;" vertex="1" parent="btCMdJgDN0vfdXvJSdrO-46">
          <mxGeometry width="185.45" height="170" as="geometry" />
        </mxCell>
        <mxCell id="btCMdJgDN0vfdXvJSdrO-7" value="Symptom &amp;amp; Test" style="text;html=1;strokeColor=none;fillColor=none;align=center;verticalAlign=middle;whiteSpace=wrap;rounded=0;fontStyle=1;fontSize=14;" vertex="1" parent="btCMdJgDN0vfdXvJSdrO-46">
          <mxGeometry x="3" y="112.82" width="180" height="46.36" as="geometry" />
        </mxCell>
        <mxCell id="btCMdJgDN0vfdXvJSdrO-23" value="" style="shape=image;verticalLabelPosition=bottom;labelBackgroundColor=default;verticalAlign=top;aspect=fixed;imageAspect=0;image=data:image/svg+xml,PHN2ZyB4bWxuczp4bGluaz0iaHR0cDovL3d3dy53My5vcmcvMTk5OS94bGluayIgeG1sbnM9Imh0dHA6Ly93d3cudzMub3JnLzIwMDAvc3ZnIiB4bWw6c3BhY2U9InByZXNlcnZlIiBzdHlsZT0iZW5hYmxlLWJhY2tncm91bmQ6bmV3IDAgMCA4MDAgODAwOyIgdmlld0JveD0iMCAwIDgwMCA4MDAiIHk9IjBweCIgeD0iMHB4IiBpZD0iX3gzMV8tb3V0bGluZS1leHBhbmQiIHZlcnNpb249IjEuMSI+JiN4YTs8c3R5bGUgdHlwZT0idGV4dC9jc3MiPiYjeGE7CS5zdDB7b3BhY2l0eTowLjU7ZmlsbDojRkZDQzNCO30mI3hhOwkuc3Qxe2ZpbGw6I0ZGQ0MzQjt9JiN4YTsJLnN0MntmaWxsOiM0MTQwNDI7fSYjeGE7CS5zdDN7ZmlsbDojRDM2NzY3O30mI3hhOwkuc3Q0e2ZpbGw6IzAwOTY1ODt9JiN4YTsJLnN0NXtmaWxsOiNGRkZGRkY7fSYjeGE7CS5zdDZ7ZmlsbDojRTBDNDk0O30mI3hhOzwvc3R5bGU+JiN4YTs8cGF0aCBkPSJNNTAsNzc1VjYwMEwyNSw0MjVWMjYyLjVjMC0xMjQuMywxMDAuNy0yMjUsMjI1LTIyNXMyMjUsMTAwLjcsMjI1LDIyNUw1MzcuNSw0MjVoLTc1djIwMGgtMTc1djE1MEg1MHoiIGNsYXNzPSJzdDAiLz4mI3hhOzxwYXRoIGQ9Ik0yNSwyNjIuNVY0MjVoMjVjNTUuMiwwLDEwMC00NC44LDEwMC0xMDBjLTI3LjYsMC01MC0yMi40LTUwLTUwczIyLjQtNTAsNTAtNTB2LTYyLjVoMjUwYzY5LDAsMTI1LTU2LDEyNS0xMjUmIzEwOyYjOTtIMjUwQzEyNS43LDM3LjUsMjUsMTM4LjIsMjUsMjYyLjVMMjUsMjYyLjV6IiBjbGFzcz0ic3QxIi8+JiN4YTs8cGF0aCBkPSJNNDYyLjUsNTUwaC01MGMtMjcuNiwwLTUwLTIyLjQtNTAtNTBoMjVjMCwxMy44LDExLjIsMjUsMjUsMjVoNTBWNTUweiIgY2xhc3M9InN0MiIvPiYjeGE7PHBhdGggZD0iTTM2Mi41LDMzNC41Yy0yMy40LDAtNDUuMy05LjEtNjEuOS0yNS42bDE3LjctMTcuN2MxMS44LDExLjgsMjcuNSwxOC4zLDQ0LjIsMTguM3MzMi40LTYuNSw0NC4yLTE4LjMmIzEwOyYjOTtsMTcuNywxNy43QzQwNy44LDMyNS40LDM4NS45LDMzNC41LDM2Mi41LDMzNC41eiIgY2xhc3M9InN0MiIvPiYjeGE7PHBvbHlnb24gcG9pbnRzPSI2MTIuNSwzMDAgNjI1LDM4Ny41IDcwMCwzODcuNSA3MDAsMzAwIiBjbGFzcz0ic3QzIi8+JiN4YTs8cG9seWdvbiBwb2ludHM9IjU1MCwyMDAgNTUwLDMwMCA2NTAsMzAwIDY4Ny41LDQ3NSA3NzUsNDc1IDc3NSwyODcuNSA3MTIuNSwyMDAiIGNsYXNzPSJzdDIiLz4mI3hhOzxyZWN0IGhlaWdodD0iMjUiIHdpZHRoPSI3MC43IiBjbGFzcz0ic3QyIiB0cmFuc2Zvcm09Im1hdHJpeCgwLjcwNzEgLTAuNzA3MSAwLjcwNzEgMC43MDcxIDk0LjA0MjEgNDI3LjAzNjMpIiB5PSI4Ny41IiB4PSI1MjcuMSIvPiYjeGE7PHJlY3QgaGVpZ2h0PSIyNSIgd2lkdGg9IjY3LjMiIGNsYXNzPSJzdDIiIHRyYW5zZm9ybT0ibWF0cml4KDAuOTI4NiAtMC4zNzExIDAuMzcxMSAwLjkyODYgLTEzLjI1NzYgMjMxLjA0NikiIHk9IjEzNy41IiB4PSI1NjAuMSIvPiYjeGE7PHBhdGggZD0iTTc2Mi41LDY4Ny41YzAsNDguMy0zOS4yLDg3LjUtODcuNSw4Ny41cy04Ny41LTM5LjItODcuNS04Ny41UzYyNi43LDYwMCw2NzUsNjAwUzc2Mi41LDYzOS4yLDc2Mi41LDY4Ny41JiMxMDsmIzk7TDc2Mi41LDY4Ny41eiIgY2xhc3M9InN0NCIvPiYjeGE7PHBvbHlnb24gcG9pbnRzPSI2NjIuNSw3MzAuMiA2MjguNyw2OTYuMyA2NDYuMyw2NzguNyA2NjIuNSw2OTQuOCA3MTYuMiw2NDEuMiA3MzMuOCw2NTguOCIgY2xhc3M9InN0NSIvPiYjeGE7PHJlY3QgaGVpZ2h0PSIyNSIgd2lkdGg9IjI1IiBjbGFzcz0ic3QyIiB5PSI1MTIuNSIgeD0iNzEyLjUiLz4mI3hhOzxyZWN0IGhlaWdodD0iMjUiIHdpZHRoPSIyNSIgY2xhc3M9InN0MiIgeT0iNTYyLjUiIHg9IjcxMi41Ii8+JiN4YTs8cmVjdCBoZWlnaHQ9IjI1IiB3aWR0aD0iMjUiIGNsYXNzPSJzdDIiIHk9IjY3NSIgeD0iNTI1Ii8+JiN4YTs8cmVjdCBoZWlnaHQ9IjI1IiB3aWR0aD0iMjUiIGNsYXNzPSJzdDIiIHk9IjY3NSIgeD0iNDc1Ii8+JiN4YTs8cmVjdCBoZWlnaHQ9IjI1IiB3aWR0aD0iMjUiIGNsYXNzPSJzdDIiIHk9IjY3NSIgeD0iNDI1Ii8+JiN4YTs8cmVjdCBoZWlnaHQ9IjI1IiB3aWR0aD0iMjUiIGNsYXNzPSJzdDIiIHk9IjY3NSIgeD0iMzc1Ii8+JiN4YTs8cmVjdCBoZWlnaHQ9IjI1IiB3aWR0aD0iMjUiIGNsYXNzPSJzdDIiIHk9IjY3NSIgeD0iMzI1Ii8+JiN4YTs8cG9seWdvbiBwb2ludHM9IjI4Ny41LDYyNSAyMjUsNjI1IDI4Ny41LDY1MCIgY2xhc3M9InN0NiIvPiYjeGE7PC9zdmc+;" vertex="1" parent="btCMdJgDN0vfdXvJSdrO-46">
          <mxGeometry x="46.25" y="19.319999999999993" width="93.5" height="93.5" as="geometry" />
        </mxCell>
        <mxCell id="btCMdJgDN0vfdXvJSdrO-47" value="" style="group" vertex="1" connectable="0" parent="9gPz6wlH9H_RJWPSHjjy-1">
          <mxGeometry x="429" y="501" width="185.45000000000005" height="170" as="geometry" />
        </mxCell>
        <mxCell id="btCMdJgDN0vfdXvJSdrO-2" value="" style="rounded=1;whiteSpace=wrap;html=1;fillColor=#647687;fontColor=#ffffff;strokeColor=none;opacity=10;" vertex="1" parent="btCMdJgDN0vfdXvJSdrO-47">
          <mxGeometry width="185.45" height="170" as="geometry" />
        </mxCell>
        <mxCell id="btCMdJgDN0vfdXvJSdrO-3" value="Protect Yourself" style="text;html=1;strokeColor=none;fillColor=none;align=center;verticalAlign=middle;whiteSpace=wrap;rounded=0;fontStyle=1;fontSize=14;" vertex="1" parent="btCMdJgDN0vfdXvJSdrO-47">
          <mxGeometry x="3" y="112.82" width="180" height="46.36" as="geometry" />
        </mxCell>
        <mxCell id="btCMdJgDN0vfdXvJSdrO-22" value="" style="shape=image;verticalLabelPosition=bottom;labelBackgroundColor=default;verticalAlign=top;aspect=fixed;imageAspect=0;image=data:image/svg+xml,PHN2ZyB4bWxuczp4bGluaz0iaHR0cDovL3d3dy53My5vcmcvMTk5OS94bGluayIgeG1sbnM9Imh0dHA6Ly93d3cudzMub3JnLzIwMDAvc3ZnIiB4bWw6c3BhY2U9InByZXNlcnZlIiBzdHlsZT0iZW5hYmxlLWJhY2tncm91bmQ6bmV3IDAgMCA4MDAgODAwOyIgdmlld0JveD0iMCAwIDgwMCA4MDAiIHk9IjBweCIgeD0iMHB4IiBpZD0iX3gzMV8tb3V0bGluZS1leHBhbmQiIHZlcnNpb249IjEuMSI+JiN4YTs8c3R5bGUgdHlwZT0idGV4dC9jc3MiPiYjeGE7CS5zdDB7ZmlsbDojNDE0MDQyO30mI3hhOwkuc3Qxe29wYWNpdHk6MC41MTtmaWxsOiNGRkNDM0I7fSYjeGE7CS5zdDJ7ZmlsbDojQUE0OTRBO30mI3hhOwkuc3Qze29wYWNpdHk6MC41O2ZpbGw6I0ZGQ0MzQjt9JiN4YTsJLnN0NHtmaWxsOiNGN0VFREM7fSYjeGE7CS5zdDV7ZmlsbDojMDA5NjU4O30mI3hhOwkuc3Q2e2ZpbGw6IzNBNDI0OTt9JiN4YTsJLnN0N3tmaWxsOiNFMEM0ODU7fSYjeGE7CS5zdDh7ZmlsbDojRDM2NzY3O30mI3hhOzwvc3R5bGU+JiN4YTs8cGF0aCBkPSJNNzYyLjUsNzUwdjI1aC03MjV2LTI1YzcuOC0yMy4zLDIxLjQtNDMuNSwzOS01OS4zYzE3LjgtMTUuOCwzOS41LTI3LDYzLjQtMzJsMjcuNS01LjgmIzEwOyYjOTtjNDguOCw1MC44LDEzNC44LDg0LjUsMjMyLjYsODQuNXMxODMuOS0zMy44LDIzMi42LTg0LjVsMjcuNSw1LjhDNzA4LDY2OC44LDc0Nyw3MDMuNSw3NjIuNSw3NTB6IiBjbGFzcz0ic3QwIi8+JiN4YTs8cGF0aCBkPSJNNTM5LjgsNjMzbDkyLjksMTkuNmMtNDguOCw1MC44LTEzNC43LDg0LjUtMjMyLjYsODQuNXMtMTgzLjktMzMuOC0yMzIuNi04NC41bDkyLjktMTkuNiYjMTA7JiM5O2MyMy4xLTQuOSwzOS44LTI1LjMsMzkuOC00OXYtMzNoMjAwdjMzQzUwMCw2MDcuOCw1MTYuNiw2MjguMSw1MzkuOCw2MzN6IiBjbGFzcz0ic3QxIi8+JiN4YTs8cGF0aCBkPSJNNjI1LDEzNy41aC0zMC40YzE1LjUsMjYuOCwyNS45LDU3LDI5LjIsODkuNGMwLjcsMy40LDEuMiw2LjksMS4yLDEwLjZWMjUwdjEwMHY4Ny41JiMxMDsmIzk7YzAsNzUuOSw2MS42LDEzNy41LDEzNy41LDEzNy41VjI3NUM3NjIuNSwxOTkuMSw3MDAuOSwxMzcuNSw2MjUsMTM3LjV6IiBjbGFzcz0ic3QyIi8+JiN4YTs8cGF0aCBkPSJNNjI1LDI2Mi41VjM1MGMwLDEyNC4yLTEwMC44LDIyNS0yMjUsMjI1UzE3NSw0NzQuMiwxNzUsMzUwdi04Ny41VjI1MGMwLTEyNC4yLDEwMC44LTIyNSwyMjUtMjI1JiMxMDsmIzk7YzYyLjEsMCwxMTguNCwyNS4zLDE1OS4xLDY1LjljNDAuNiw0MC44LDY1LjksOTcsNjUuOSwxNTkuMVYyNjIuNXoiIGNsYXNzPSJzdDMiLz4mI3hhOzxwYXRoIGQ9Ik01NTAsNTI1TDU1MCw1MjVjLTYuMy0yLjktOS0xMC4zLTYuMS0xNi42bDY0LjUtMTM5LjhjMi45LTYuMywxMC4zLTksMTYuNi02LjFoMGM2LjMsMi45LDksMTAuMyw2LjEsMTYuNiYjMTA7JiM5O2wtNjQuNSwxMzkuOEM1NjMuNyw1MjUuMiw1NTYuMyw1MjcuOSw1NTAsNTI1eiIgY2xhc3M9InN0NCIvPiYjeGE7PHBhdGggZD0iTTIzMy40LDUxOC45bC02NC41LTEzOS44Yy0yLjktNi4zLTAuMi0xMy43LDYuMS0xNi42aDBjNi4zLTIuOSwxMy43LTAuMiwxNi42LDYuMWw2NC41LDEzOS44JiMxMDsmIzk7YzIuOSw2LjMsMC4yLDEzLjctNi4xLDE2LjZDMjQzLjcsNTI3LjksMjM2LjMsNTI1LjIsMjMzLjQsNTE4Ljl6IiBjbGFzcz0ic3Q0Ii8+JiN4YTs8cGF0aCBkPSJNNTUwLDM3NWwtMTUwLTI1bC0xNTAsMjV2MTUwYzg4LjksNjYuNywyMTEuMSw2Ni43LDMwMCwwVjM3NXoiIGNsYXNzPSJzdDUiLz4mI3hhOzxjaXJjbGUgcj0iMjUiIGN5PSIzMTIuNSIgY3g9IjMxMi41IiBjbGFzcz0ic3Q2Ii8+JiN4YTs8Y2lyY2xlIHI9IjI1IiBjeT0iMzEyLjUiIGN4PSI0ODcuNSIgY2xhc3M9InN0NiIvPiYjeGE7PHBhdGggZD0iTTE1MCwzNTBoMjVWMjUwaC0yNWMtMjcuNiwwLTUwLDIyLjQtNTAsNTBTMTIyLjQsMzUwLDE1MCwzNTB6IiBjbGFzcz0ic3Q3Ii8+JiN4YTs8cGF0aCBkPSJNNjUwLDI1MGgtMjV2MTAwaDI1YzI3LjYsMCw1MC0yMi40LDUwLTUwUzY3Ny42LDI1MCw2NTAsMjUweiIgY2xhc3M9InN0NyIvPiYjeGE7PHBhdGggZD0iTTYyNSwyNTB2MTIuNWMtMTU4LjksMC0yODcuNS02MS41LTI4Ny41LTEzNy41YzAsNzYtNzIuNiwxMzcuNS0xNjIuNSwxMzcuNVYyNTBjMC0xMjQuMiwxMDAuOC0yMjUsMjI1LTIyNSYjMTA7JiM5O2M2Mi4xLDAsMTE4LjQsMjUuMywxNTkuMSw2NS45QzU5OS44LDEzMS42LDYyNSwxODcuOSw2MjUsMjUweiIgY2xhc3M9InN0OCIvPiYjeGE7PHBhdGggZD0iTTIzMi40LDM3My42bC01OC43LTY4LjVjLTQuNS01LjMtMy45LTEzLjEsMS4zLTE3LjZjNS4zLTQuNSwxMy4xLTMuOSwxNy42LDEuNGw1OC43LDY4LjUmIzEwOyYjOTtjNC41LDUuMywzLjksMTMuMS0xLjQsMTcuNkMyNDQuOCwzNzkuNSwyMzYuOSwzNzguOSwyMzIuNCwzNzMuNnoiIGNsYXNzPSJzdDQiLz4mI3hhOzxwYXRoIGQ9Ik01NTAsMzc1TDU1MCwzNzVjLTUuNS00LjItNi42LTEyLTIuNS0xNy41bDYwLTgwYzQuMS01LjUsMTItNi42LDE3LjUtMi41YzUuNSw0LjIsNi42LDEyLDIuNSwxNy41bC02MCw4MCYjMTA7JiM5O0M1NjMuNCwzNzgsNTU1LjUsMzc5LjIsNTUwLDM3NXoiIGNsYXNzPSJzdDQiLz4mI3hhOzxwYXRoIGQ9Ik0yNTAsNDI1TDI1MCw0MjVjLTEuMy02LjgsMy0xMy40LDkuOC0xNC43bDM4LTcuNmM2LjgtMS40LDEzLjQsMywxNC43LDkuOHMtMywxMy40LTkuOCwxNC43bC0zOCw3LjYmIzEwOyYjOTtDMjU3LjksNDM2LjIsMjUxLjMsNDMxLjgsMjUwLDQyNXoiIGNsYXNzPSJzdDYiLz4mI3hhOzxwYXRoIGQ9Ik0yOTcuOCw0OTcuM2wtMzgtNy42Yy02LjgtMS40LTExLjItOC05LjgtMTQuN2MxLjMtNi44LDcuOS0xMS4yLDE0LjctOS44bDM4LDcuNmM2LjgsMS40LDExLjIsNy45LDkuOCwxNC43JiMxMDsmIzk7QzMxMS4xLDQ5NC4zLDMwNC42LDQ5OC42LDI5Ny44LDQ5Ny4zeiIgY2xhc3M9InN0NiIvPiYjeGE7PHBhdGggZD0iTTUzNS4zLDQzNC44bC0zOC03LjZjLTYuOC0xLjQtMTEuMi04LTkuOC0xNC43YzEuNC02LjgsNy45LTExLjIsMTQuNy05LjhsMzgsNy42YzYuOCwxLjQsMTEuMSw3LjksOS44LDE0LjcmIzEwOyYjOTtDNTQ4LjYsNDMxLjgsNTQyLjEsNDM2LjEsNTM1LjMsNDM0Ljh6IiBjbGFzcz0ic3Q2Ii8+JiN4YTs8cGF0aCBkPSJNNDg3LjUsNDg3LjVMNDg3LjUsNDg3LjVjLTEuNC02LjgsMy0xMy40LDkuOC0xNC43bDM4LTcuNmM2LjgtMS40LDEzLjQsMywxNC43LDkuOHMtMywxMy40LTkuOCwxNC43bC0zOCw3LjYmIzEwOyYjOTtDNDk1LjQsNDk4LjcsNDg4LjksNDk0LjMsNDg3LjUsNDg3LjV6IiBjbGFzcz0ic3Q2Ii8+JiN4YTs8L3N2Zz4=;" vertex="1" parent="btCMdJgDN0vfdXvJSdrO-47">
          <mxGeometry x="44.5" y="15.819999999999993" width="97" height="97" as="geometry" />
        </mxCell>
        <mxCell id="btCMdJgDN0vfdXvJSdrO-48" value="" style="group" vertex="1" connectable="0" parent="9gPz6wlH9H_RJWPSHjjy-1">
          <mxGeometry x="156" y="501" width="185.45" height="170" as="geometry" />
        </mxCell>
        <mxCell id="9gPz6wlH9H_RJWPSHjjy-9" value="" style="rounded=1;whiteSpace=wrap;html=1;fillColor=#647687;fontColor=#ffffff;strokeColor=none;opacity=10;" parent="btCMdJgDN0vfdXvJSdrO-48" vertex="1">
          <mxGeometry width="185.45" height="170" as="geometry" />
        </mxCell>
        <mxCell id="9gPz6wlH9H_RJWPSHjjy-10" value="Vaccine" style="text;html=1;strokeColor=none;fillColor=none;align=center;verticalAlign=middle;whiteSpace=wrap;rounded=0;fontStyle=1;fontSize=14;" parent="btCMdJgDN0vfdXvJSdrO-48" vertex="1">
          <mxGeometry x="3" y="117.82" width="180" height="38.18" as="geometry" />
        </mxCell>
        <mxCell id="9gPz6wlH9H_RJWPSHjjy-18" value="" style="shape=image;verticalLabelPosition=bottom;labelBackgroundColor=default;verticalAlign=top;aspect=fixed;imageAspect=0;image=data:image/svg+xml,PHN2ZyB4bWxuczp4bGluaz0iaHR0cDovL3d3dy53My5vcmcvMTk5OS94bGluayIgeG1sbnM9Imh0dHA6Ly93d3cudzMub3JnLzIwMDAvc3ZnIiB4bWw6c3BhY2U9InByZXNlcnZlIiBzdHlsZT0iZW5hYmxlLWJhY2tncm91bmQ6bmV3IDAgMCA4MDAgODAwOyIgdmlld0JveD0iMCAwIDgwMCA4MDAiIHk9IjBweCIgeD0iMHB4IiBpZD0iX3gzMV8tb3V0bGluZS1leHBhbmQiIHZlcnNpb249IjEuMSI+JiN4YTs8c3R5bGUgdHlwZT0idGV4dC9jc3MiPiYjeGE7CS5zdDB7b3BhY2l0eTowLjU7ZmlsbDojRkZDQzNCO30mI3hhOwkuc3Qxe2ZpbGw6I0ZGQ0MzQjt9JiN4YTsJLnN0MntmaWxsOiNBQTQ5NEE7fSYjeGE7CS5zdDN7ZmlsbDojRDM2NzY3O30mI3hhOwkuc3Q0e2ZpbGw6IzQxNDA0Mjt9JiN4YTsJLnN0NXtvcGFjaXR5OjAuNztmaWxsOiMwMDk2NTg7fSYjeGE7CS5zdDZ7ZmlsbDojMDA5NjU4O30mI3hhOzwvc3R5bGU+JiN4YTs8cGF0aCBkPSJNMzAwLDM2Mi41VjMwMEgxNTB2NjIuNWMtNjIuMSwwLTExMi41LDUwLjQtMTEyLjUsMTEyLjV2MzAwaDM3NVY0NzVDNDEyLjUsNDEyLjksMzYyLjEsMzYyLjUsMzAwLDM2Mi41JiMxMDsmIzk7TDMwMCwzNjIuNXoiIGNsYXNzPSJzdDAiLz4mI3hhOzxyZWN0IGhlaWdodD0iNTAiIHdpZHRoPSIyNSIgY2xhc3M9InN0MSIgeT0iNDYyLjUiIHg9IjIxMi41Ii8+JiN4YTs8cmVjdCBoZWlnaHQ9IjI1IiB3aWR0aD0iNTAiIGNsYXNzPSJzdDEiIHk9IjQ1MCIgeD0iMjAwIi8+JiN4YTs8cmVjdCBoZWlnaHQ9IjUwIiB3aWR0aD0iMjUiIGNsYXNzPSJzdDEiIHRyYW5zZm9ybT0ibWF0cml4KDAuNSAtMC44NjYgMC44NjYgMC41IC0zODUuNDU1OCAzOTQuODM1OSkiIHk9IjUwNi4yIiB4PSIxMzYuNyIvPiYjeGE7PHJlY3QgaGVpZ2h0PSIyNSIgd2lkdGg9IjUwIiBjbGFzcz0ic3QxIiB0cmFuc2Zvcm09Im1hdHJpeCgwLjQ5OTkgLTAuODY2MSAwLjg2NjEgMC40OTk5IC0zODUuNDYzNyAzNjkuOTI2MikiIHk9IjUwNi4yIiB4PSIxMDIuNiIvPiYjeGE7PHJlY3QgaGVpZ2h0PSIyNSIgd2lkdGg9IjUwIiBjbGFzcz0ic3QxIiB0cmFuc2Zvcm09Im1hdHJpeCgwLjg2NjEgLTAuNDk5OSAwLjQ5OTkgMC44NjYxIC0yODkuMzM2OSAxNTcuNDUzNykiIHk9IjYwNi4zIiB4PSIxMjQuMiIvPiYjeGE7PHJlY3QgaGVpZ2h0PSI1MCIgd2lkdGg9IjI1IiBjbGFzcz0ic3QxIiB0cmFuc2Zvcm09Im1hdHJpeCgwLjg2NiAtMC41IDAuNSAwLjg2NiAtMjk4LjUzOTggMTQ4LjM1NTEpIiB5PSI2MDYuMiIgeD0iMTE1LjEiLz4mI3hhOzxyZWN0IGhlaWdodD0iNTAiIHdpZHRoPSIyNSIgY2xhc3M9InN0MSIgeT0iNjM3LjUiIHg9IjIxMi41Ii8+JiN4YTs8cmVjdCBoZWlnaHQ9IjI1IiB3aWR0aD0iNTAiIGNsYXNzPSJzdDEiIHk9IjY3NSIgeD0iMjAwIi8+JiN4YTs8cmVjdCBoZWlnaHQ9IjUwIiB3aWR0aD0iMjUiIGNsYXNzPSJzdDEiIHRyYW5zZm9ybT0ibWF0cml4KDAuNSAtMC44NjYgMC44NjYgMC41IC0zODUuNDYxMiA1NjkuODI3KSIgeT0iNTkzLjciIHg9IjI4OC4zIi8+JiN4YTs8cmVjdCBoZWlnaHQ9IjI1IiB3aWR0aD0iNTAiIGNsYXNzPSJzdDEiIHRyYW5zZm9ybT0ibWF0cml4KDAuNDk5OSAtMC44NjYxIDAuODY2MSAwLjQ5OTkgLTM4NS40NDYzIDU5NC45Mzk1KSIgeT0iNjE4LjciIHg9IjI5Ny40Ii8+JiN4YTs8cmVjdCBoZWlnaHQ9IjI1IiB3aWR0aD0iNTAiIGNsYXNzPSJzdDEiIHRyYW5zZm9ybT0ibWF0cml4KDAuODY2MSAtMC40OTk5IDAuNDk5OSAwLjg2NjEgLTIyNS4zMDEgMjIxLjQ5ODIpIiB5PSI1MTguOCIgeD0iMjc1LjgiLz4mI3hhOzxyZWN0IGhlaWdodD0iNTAiIHdpZHRoPSIyNSIgY2xhc3M9InN0MSIgdHJhbnNmb3JtPSJtYXRyaXgoMC44NjYgLTAuNSAwLjUgMC44NjYgLTIxNi4xODUzIDIzMC43MTA5KSIgeT0iNDkzLjgiIHg9IjMwOS45Ii8+JiN4YTs8cGF0aCBkPSJNMzAwLDU3NWMwLDQxLjQtMzMuNiw3NS03NSw3NXMtNzUtMzMuNi03NS03NXMzMy42LTc1LDc1LTc1UzMwMCw1MzMuNiwzMDAsNTc1TDMwMCw1NzV6IiBjbGFzcz0ic3QyIi8+JiN4YTs8cGF0aCBkPSJNMjc1LDU3NWMwLDI3LjYtMjIuNCw1MC01MCw1MHMtNTAtMjIuNC01MC01MHMyMi40LTUwLDUwLTUwUzI3NSw1NDcuNCwyNzUsNTc1TDI3NSw1NzV6IiBjbGFzcz0ic3QzIi8+JiN4YTs8cmVjdCBoZWlnaHQ9Ijg3LjUiIHdpZHRoPSIyMjUiIGNsYXNzPSJzdDQiIHk9IjIxMi41IiB4PSIxMTIuNSIvPiYjeGE7PHJlY3QgaGVpZ2h0PSIxMDAiIHdpZHRoPSI1MCIgY2xhc3M9InN0NSIgeT0iMTg3LjUiIHg9IjY2Mi41Ii8+JiN4YTs8cmVjdCBoZWlnaHQ9IjM4Ny41IiB3aWR0aD0iMTI1IiBjbGFzcz0ic3Q2IiB5PSIyODcuNSIgeD0iNjI1Ii8+JiN4YTs8cmVjdCBoZWlnaHQ9Ijg3LjUiIHdpZHRoPSI3NSIgY2xhc3M9InN0NCIgeT0iNjc1IiB4PSI2NTAiLz4mI3hhOzxyZWN0IGhlaWdodD0iMjUiIHdpZHRoPSIxNzUiIGNsYXNzPSJzdDQiIHk9Ijc1MCIgeD0iNjAwIi8+JiN4YTs8cmVjdCBoZWlnaHQ9IjE2Mi41IiB3aWR0aD0iMjUiIGNsYXNzPSJzdDQiIHk9IjI1IiB4PSI2NzUiLz4mI3hhOzxyZWN0IGhlaWdodD0iMjUiIHdpZHRoPSIzNy41IiBjbGFzcz0ic3Q0IiB5PSIzNTAiIHg9IjcxMi41Ii8+JiN4YTs8cmVjdCBoZWlnaHQ9IjI1IiB3aWR0aD0iMzcuNSIgY2xhc3M9InN0NCIgeT0iNDAwIiB4PSI3MTIuNSIvPiYjeGE7PHJlY3QgaGVpZ2h0PSIyNSIgd2lkdGg9IjYyLjUiIGNsYXNzPSJzdDQiIHk9IjQ1MCIgeD0iNjg3LjUiLz4mI3hhOzxyZWN0IGhlaWdodD0iMjUiIHdpZHRoPSIzNy41IiBjbGFzcz0ic3Q0IiB5PSI1MDAiIHg9IjcxMi41Ii8+JiN4YTs8cmVjdCBoZWlnaHQ9IjI1IiB3aWR0aD0iMzcuNSIgY2xhc3M9InN0NCIgeT0iNTUwIiB4PSI3MTIuNSIvPiYjeGE7PHJlY3QgaGVpZ2h0PSIyNSIgd2lkdGg9IjYyLjUiIGNsYXNzPSJzdDQiIHk9IjYwMCIgeD0iNjg3LjUiLz4mI3hhOzxwYXRoIGQ9Ik02MTguOCwyMjkuM2MtNC45LTYuNi0xMC4yLTEzLjItMTUuNy0xOS40bDE4LjgtMTYuNmM2LDYuOCwxMS44LDEzLjksMTcuMSwyMS4yTDYxOC44LDIyOS4zeiBNNTg1LjgsMTkxLjgmIzEwOyYjOTtjLTYtNS43LTEyLjMtMTEuMi0xOC44LTE2LjRsMTUuNi0xOS41YzcuMSw1LjcsMTQsMTEuNywyMC41LDE3LjlMNTg1LjgsMTkxLjh6IE0xOTguMSwxODMuN2wtMTYuNS0xOC44YzYuOC01LjksMTMuOS0xMS43LDIxLjItMTcmIzEwOyYjOTtsMTQuOCwyMC4xQzIxMC45LDE3MywyMDQuMywxNzguMywxOTguMSwxODMuN3ogTTU0Ni43LDE2MC42Yy02LjktNC42LTE0LjEtOS0yMS40LTEzbDEyLTIxLjljNy45LDQuMywxNS44LDkuMSwyMy4zLDE0LjEmIzEwOyYjOTtMNTQ2LjcsMTYwLjZ6IE0yMzguNCwxNTQuMWwtMTMtMjEuNGM3LjctNC43LDE1LjgtOS4xLDIzLjgtMTMuMWwxMS4xLDIyLjRDMjUyLjksMTQ1LjgsMjQ1LjUsMTQ5LjgsMjM4LjQsMTU0LjF6IE01MDIuOCwxMzYuNiYjMTA7JiM5O2MtNy42LTMuMy0xNS41LTYuNC0yMy4zLTlsOC0yMy43YzguNiwyLjksMTcuMSw2LjIsMjUuNCw5LjhMNTAyLjgsMTM2LjZ6IE0yODMuMiwxMzJsLTkuMS0yMy4zYzguNC0zLjMsMTcuMS02LjIsMjUuOC04LjhsNywyNCYjMTA7JiM5O0MyOTksMTI2LjMsMjkxLDEyOSwyODMuMiwxMzJ6IE00NTUuNCwxMjAuNmMtOC4xLTEuOS0xNi40LTMuNi0yNC42LTQuOGwzLjctMjQuN2M5LDEuMywxOCwzLjEsMjYuNyw1LjNMNDU1LjQsMTIwLjZ6IE0zMzEuMiwxMTgmIzEwOyYjOTtsLTQuOS0yNC41YzguOS0xLjgsMTcuOS0zLjIsMjYuOS00LjFsMi43LDI0LjhDMzQ3LjcsMTE1LjEsMzM5LjQsMTE2LjQsMzMxLjIsMTE4eiBNNDA2LDExMy4xYy02LjEtMC40LTEyLjMtMC42LTE4LjUtMC42bC02LjYsMC4xJiMxMDsmIzk7bC0wLjUtMjVjOS0wLjIsMTguMiwwLDI3LjIsMC42TDQwNiwxMTMuMXoiIGNsYXNzPSJzdDQiLz4mI3hhOzxwYXRoIGQ9Ik00NDAuMiw3MDguMWwtNC4yLTI0LjdjOC4xLTEuNCwxNi4xLTMuMSwyNC01LjJsNi4zLDI0LjJDNDU3LjgsNzA0LjcsNDQ5LDcwNi42LDQ0MC4yLDcwOC4xeiBNNDkxLjksNjk0LjYmIzEwOyYjOTtsLTguMy0yMy42YzcuNi0yLjcsMTUuMy01LjgsMjIuOC05LjJsMTAuMywyMi44QzUwOC42LDY4OC4zLDUwMC4zLDY5MS43LDQ5MS45LDY5NC42eiBNNTQwLjYsNjcyLjVsLTEyLjMtMjEuOCYjMTA7JiM5O2M3LjEtNCwxNC4xLTguMywyMC45LTEzbDE0LjEsMjAuNkM1NTYsNjYzLjQsNTQ4LjMsNjY4LjIsNTQwLjYsNjcyLjV6IE01ODQuNyw2NDIuNGwtMTUuOC0xOS40YzYuMy01LjIsMTIuNS0xMC43LDE4LjQtMTYuMyYjMTA7JiM5O2wxNy40LDE4QzU5OC4zLDYzMC45LDU5MS42LDYzNi44LDU4NC43LDY0Mi40eiIgY2xhc3M9InN0NCIvPiYjeGE7PHBhdGggZD0iTTM5My43LDIzNS4yYzI2LjQtNi44LDQ3LjItMjcuNiw1NC01NGMwLjYtMi41LDQtMi41LDQuNywwYzYuOCwyNi40LDI3LjYsNDcuMiw1NCw1NGMyLjUsMC42LDIuNSw0LDAsNC43JiMxMDsmIzk7Yy0yNi41LDYuOC00Ny4yLDI3LjYtNTQsNTRjLTAuNiwyLjUtNCwyLjUtNC43LDBjLTYuOC0yNi40LTI3LjYtNDcuMi01NC01NEMzOTEuMSwyMzkuMiwzOTEuMSwyMzUuOCwzOTMuNywyMzUuMkwzOTMuNywyMzUuMnoiIGNsYXNzPSJzdDEiLz4mI3hhOzwvc3ZnPg==;" parent="btCMdJgDN0vfdXvJSdrO-48" vertex="1">
          <mxGeometry x="43.81" y="20" width="97.82" height="97.82" as="geometry" />
        </mxCell>
        <mxCell id="btCMdJgDN0vfdXvJSdrO-49" value="" style="group" vertex="1" connectable="0" parent="9gPz6wlH9H_RJWPSHjjy-1">
          <mxGeometry x="437.91" y="1131.23" width="160.99999999999994" height="48.72000000000003" as="geometry" />
        </mxCell>
        <mxCell id="btCMdJgDN0vfdXvJSdrO-39" value="" style="shape=image;verticalLabelPosition=bottom;labelBackgroundColor=default;verticalAlign=top;aspect=fixed;imageAspect=0;image=data:image/svg+xml,PHN2ZyB4bWxuczp4bGluaz0iaHR0cDovL3d3dy53My5vcmcvMTk5OS94bGluayIgeG1sbnM9Imh0dHA6Ly93d3cudzMub3JnLzIwMDAvc3ZnIiB4bWw6c3BhY2U9InByZXNlcnZlIiBzdHlsZT0iZW5hYmxlLWJhY2tncm91bmQ6bmV3IDAgMCA1MTIgNTEyOyIgdmlld0JveD0iMCAwIDUxMiA1MTIiIHk9IjBweCIgeD0iMHB4IiBpZD0iTGF5ZXJfMSIgdmVyc2lvbj0iMS4xIj4mI3hhOzxzdHlsZSB0eXBlPSJ0ZXh0L2NzcyI+JiN4YTsJLnN0MHtmaWxsOiNGRkZGRkY7fSYjeGE7PC9zdHlsZT4mI3hhOzxwYXRoIGQ9Ik00OTMuNiwxMzUuM2MtNS42LTIwLjgtMjMuNi0zNy41LTQ0LjQtNDNjLTQ3LjItMTIuNS0zMzEuOC0xMy45LTM4NS45LDBjLTIwLjgsNS42LTM4LjksMjIuMi00NC40LDQzJiMxMDsmIzk7QzYuNCwxODgsNSwzMjIuNywxOC45LDM3Ni44YzUuNiwyMC44LDIzLjYsMzcuNSw0NC40LDQzYzUwLDEzLjksMzM0LjUsMTMuOSwzODUuOSwwYzIwLjgtNS42LDM4LjktMjIuMiw0NC40LTQzJiMxMDsmIzk7QzUwNi4xLDMyNi45LDUwNi4xLDE4Ni43LDQ5My42LDEzNS4zeiBNMjA2LjMsMzI5LjZWMTgyLjVsMTI5LjEsNzMuNkwyMDYuMywzMjkuNnoiIGNsYXNzPSJzdDAiLz4mI3hhOzwvc3ZnPg==;" vertex="1" parent="btCMdJgDN0vfdXvJSdrO-49">
          <mxGeometry width="48.72" height="48.72" as="geometry" />
        </mxCell>
        <mxCell id="btCMdJgDN0vfdXvJSdrO-40" value="" style="shape=image;verticalLabelPosition=bottom;labelBackgroundColor=default;verticalAlign=top;aspect=fixed;imageAspect=0;image=data:image/svg+xml,PHN2ZyB4bWxuczp4bGluaz0iaHR0cDovL3d3dy53My5vcmcvMTk5OS94bGluayIgeG1sbnM9Imh0dHA6Ly93d3cudzMub3JnLzIwMDAvc3ZnIiB4bWw6c3BhY2U9InByZXNlcnZlIiBzdHlsZT0iZW5hYmxlLWJhY2tncm91bmQ6bmV3IDAgMCA1MTIgNTEyOyIgdmlld0JveD0iMCAwIDUxMiA1MTIiIHk9IjBweCIgeD0iMHB4IiBpZD0iTGF5ZXJfMSIgdmVyc2lvbj0iMS4xIj4mI3hhOzxzdHlsZSB0eXBlPSJ0ZXh0L2NzcyI+JiN4YTsJLnN0MHtmaWxsOiNGRkZGRkY7fSYjeGE7PC9zdHlsZT4mI3hhOzxwYXRoIGQ9Ik01MTIsNzYuOHYzNTguNGMwLDQyLjQtMzQuNCw3Ni44LTc2LjgsNzYuOEgyOTZWMzMwaDU5LjZsMTEuNC03NGgtNzF2LTQ4YzAtMjAuMiw5LjktNDAsNDEuNy00MEgzNzB2LTYzJiMxMDsmIzk7YzAsMC0yOS4zLTUtNTcuMy01Yy01OC41LDAtOTYuNywzNS40LTk2LjcsOTkuNlYyNTZoLTY1djc0aDY1djE4Mkg3Ni44QzM0LjQsNTEyLDAsNDc3LjYsMCw0MzUuMlY3Ni44QzAsMzQuNCwzNC40LDAsNzYuOCwwaDM1OC40JiMxMDsmIzk7QzQ3Ny42LDAsNTEyLDM0LjQsNTEyLDc2Ljh6IiBjbGFzcz0ic3QwIi8+JiN4YTs8L3N2Zz4=;" vertex="1" parent="btCMdJgDN0vfdXvJSdrO-49">
          <mxGeometry x="66.45000000000005" y="5.809999999999945" width="37.09" height="37.09" as="geometry" />
        </mxCell>
        <mxCell id="btCMdJgDN0vfdXvJSdrO-41" value="" style="shape=image;verticalLabelPosition=bottom;labelBackgroundColor=default;verticalAlign=top;aspect=fixed;imageAspect=0;image=data:image/svg+xml,PHN2ZyB4bWxuczp4bGluaz0iaHR0cDovL3d3dy53My5vcmcvMTk5OS94bGluayIgeG1sbnM9Imh0dHA6Ly93d3cudzMub3JnLzIwMDAvc3ZnIiB4bWw6c3BhY2U9InByZXNlcnZlIiBzdHlsZT0iZW5hYmxlLWJhY2tncm91bmQ6bmV3IDAgMCA0NTUuNyA0NTUuNzsiIHZpZXdCb3g9IjAgMCA0NTUuNyA0NTUuNyIgeT0iMHB4IiB4PSIwcHgiIGlkPSJDYXBhXzEiIHZlcnNpb249IjEuMSI+JiN4YTs8c3R5bGUgdHlwZT0idGV4dC9jc3MiPiYjeGE7CS5zdDB7ZmlsbDojRkZGRkZGO30mI3hhOzwvc3R5bGU+JiN4YTs8cGF0aCBkPSJNNDE0LjksMGgtMzc0QzE4LjMsMCwwLDE4LjMsMCw0MC45djM3NGMwLDIyLjYsMTguMyw0MC45LDQwLjksNDAuOWgzNzRjMjIuNiwwLDQwLjktMTguMyw0MC45LTQwLjl2LTM3NCYjMTA7JiM5O0M0NTUuNywxOC4zLDQzNy40LDAsNDE0LjksMHogTTM2MS4zLDE2My45YzAuMSwyLjcsMC4yLDUuNCwwLjIsOC4xYzAsMTA4LjMtODcuOCwxOTYuMi0xOTYuMiwxOTYuMmMtMzguNiwwLTc0LjUtMTEuMS0xMDQuOS0zMC40JiMxMDsmIzk7YzU5LjMsOC44LDEwMS0yOC45LDEwMS0yOC45Yy01Mi44LTQuMS02My4zLTQ4LjEtNjMuMy00OC4xYzE4LjcsMy4yLDMwLjQtMS4zLDMwLjQtMS4zYy01OS41LTEzLjktNTQuNC02OC4zLTU0LjQtNjguMyYjMTA7JiM5O2MxMy44LDguMiwyOS43LDguOSwyOS43LDguOUM1MS4zLDE1My45LDg0LjMsMTA5LDg0LjMsMTA5YzU1LjEsNjYuNywxMzYsNzEuMiwxNDEuMyw3MS40Yy0xLjItNS0xLjgtMTAuMi0xLjgtMTUuNiYjMTA7JiM5O2MwLTM4LDMwLjgtNjguOCw2OC44LTY4LjhjMTkuOCwwLDM3LjcsOC40LDUwLjMsMjEuOGMzLjUtMSw2LjktMiwxMC4xLTMuMWMxOS41LTYuNSwzMy40LTEzLjksMzMuNC0xMy45JiMxMDsmIzk7Yy0zLjQsMjAuMS0yOC4yLDM3LTI5LjksMzguMmMtMC4xLDAtMC4xLDAuMS0wLjEsMC4xYzAsMCwwLjEsMCwwLjEsMGMxOS0xLjksMzguMy05LjksMzguOS0xMC4xJiMxMDsmIzk7QzM4OS40LDE0MS40LDM2NS4yLDE2MC45LDM2MS4zLDE2My45eiIgY2xhc3M9InN0MCIvPiYjeGE7PC9zdmc+;" vertex="1" parent="btCMdJgDN0vfdXvJSdrO-49">
          <mxGeometry x="125.99999999999994" y="7.900000000000091" width="35" height="35" as="geometry" />
        </mxCell>
        <mxCell id="btCMdJgDN0vfdXvJSdrO-50" value="" style="shape=image;verticalLabelPosition=bottom;labelBackgroundColor=default;verticalAlign=top;aspect=fixed;imageAspect=0;image=data:image/svg+xml,PHN2ZyB4bWxuczp4bGluaz0iaHR0cDovL3d3dy53My5vcmcvMTk5OS94bGluayIgeG1sbnM9Imh0dHA6Ly93d3cudzMub3JnLzIwMDAvc3ZnIiB4bWw6c3BhY2U9InByZXNlcnZlIiBzdHlsZT0iZW5hYmxlLWJhY2tncm91bmQ6bmV3IDAgMCAzNjQuNSA5OC41OyIgdmlld0JveD0iMCAwIDM2NC41IDk4LjUiIHk9IjBweCIgeD0iMHB4IiBpZD0iTGF5ZXJfMSIgdmVyc2lvbj0iMS4xIj4mI3hhOzxzdHlsZSB0eXBlPSJ0ZXh0L2NzcyI+JiN4YTsJLnN0MHtkaXNwbGF5Om5vbmU7ZmlsbDojMDAzODVCO30mI3hhOwkuc3Qxe2ZpbGw6bm9uZTt9JiN4YTsJLnN0MntmaWxsOiNGRkZGRkY7fSYjeGE7CS5zdDN7ZmlsbDojNDE0MDQyO30mI3hhOwkuc3Q0e2ZpbGw6I0ZGQ0MzQjt9JiN4YTsJLnN0NXtmaWxsOiNFMzI3MjY7fSYjeGE7PC9zdHlsZT4mI3hhOzxyZWN0IGhlaWdodD0iMTQ2LjciIHdpZHRoPSI0MTQiIGNsYXNzPSJzdDAiIHk9Ii0yOSIgeD0iLTI3Ii8+JiN4YTs8cmVjdCBoZWlnaHQ9IjE2OC4zIiB3aWR0aD0iNDM1LjQiIGNsYXNzPSJzdDEiIHk9Ii0zNi45IiB4PSItMzUuMiIvPiYjeGE7PGc+JiN4YTsJPHBhdGggZD0iTTIyNi42LDQ3LjdjMC4xLDAsMC4yLDAsMC4zLDBjLTAuMy0wLjMtMC43LTAuNy0xLjMtMS4xYy0yLjQtMi41LTguNy0xMC44LTkuMi0yNy45YzAsMC0wLjEtNi4zLTAuNi04LjImIzEwOyYjOTsmIzk7YzAsMC0xMi4yLTItMjEsMC44cy0xMCw1LjQtMjYtMC41Yy0xNS45LTYtMzkuOC00LjYtNDIuMy00LjVjMiw0LDIsNCw1LDkuMmMwLDAsMTEuMSwxOC40LDEzLDMwLjZjMC41LDMuMSwwLjYsNS42LDAuNiw1LjYmIzEwOyYjOTsmIzk7YzAuNS0wLjMsMTAuNy0zLDEwLjctM3MxMy40LTQuMiwyMC00LjljNy42LTAuOCw3LjksMS43LDE3LDEuOGM1LjIsMCw3LjItMS44LDEzLjgtMS4xbDAsMGMwLDAsNy44LDAuOSwxNS4zLDMuNyYjMTA7JiM5OyYjOTtDMjIyLjcsNDcuOSwyMjQuMSw0Ny43LDIyNi42LDQ3Ljd6IiBjbGFzcz0ic3QyIi8+JiN4YTsJPHBhdGggZD0iTTE2Ny4zLDI4LjRjMCwwLTItNC43LTMtMTAuNWMtMjEuOC0xMy0zNy43LTExLjctMzcuNy0xMS43YzIsNCwyLDQsNSw5LjJjMjQuNCw0LjQsMzMuNCwxMy4zLDMzLjQsMTMuMyYjMTA7JiM5OyYjOTtjLTEyLjYsNi0yMC40LDE3LjMtMjAuNCwxNy4zYzAuNSwzLjEsMC42LDUuNiwwLjYsNS42YzAuNS0wLjMsMTAuNy0zLDEwLjctM2M1LjYtOSwxNC43LTEyLjgsMTYuNy0xMy41JiMxMDsmIzk7JiM5O0MxNzAuOCwzMy42LDE2OC42LDMxLjUsMTY3LjMsMjguNHoiIGNsYXNzPSJzdDMiLz4mI3hhOwk8Zz4mI3hhOwkJPHBhdGggZD0iTTIyNi42LDQ3LjdjMC4xLDAsMC4yLDAsMC4zLDBsMCwwYy0yLjctMi44LTEzLjItMTAuNC0zNy41LTE5LjdjMCwwLDUuNS03LDI3LTkuM2MwLDAtMC4xLTYuMy0wLjYtOC4yJiMxMDsmIzk7JiM5OyYjOTtjMCwwLTEzLjMtMS41LTMwLjMsOWMtMC4yLDEuNS0wLjEsNC40LDEuMyw4YzAsMCwyLjIsNC42LTAuNSw4LjRjMS4zLDAuMyw5LDIsMjAuNCw4LjZjMCwwLDcuOCwwLjksMTUuMywzLjcmIzEwOyYjOTsmIzk7JiM5O0MyMjIuNyw0Ny45LDIyNC4xLDQ3LjcsMjI2LjYsNDcuN3oiIGNsYXNzPSJzdDMiLz4mI3hhOwk8L2c+JiN4YTsJPHBhdGggZD0iTTE4Ni45LDI3LjRjLTEuNC0zLjUtMS40LTYuNS0xLjMtOGwwLDBjLTAuOSwwLjItMi4zLDAuMi0yLjQsMC4yYy0yLTAuMS00LjItMC44LTQuMi0wLjgmIzEwOyYjOTsmIzk7Yy00LjMtMS4zLTctMS42LTctMS42Yy00LjUtMC41LTcuOSwwLjUtNy45LDAuNWwwLDBjMSw1LjgsMywxMC41LDMsMTAuNWMxLjMsMy4xLDMuNSw1LjMsNS40LDYuN2MyLjIsMS42LDQuMSwyLjIsNC4xLDIuMiYjMTA7JiM5OyYjOTtjMy42LDEuNSw0LjIsMi4yLDQuMiwyLjJjMi41LTAuOSw0LjItMi4xLDUuMi0zLjVjMC4xLTAuMSwwLjItMC4yLDAuMi0wLjJDMTg5LjIsMzIsMTg2LjksMjcuNCwxODYuOSwyNy40eiIgY2xhc3M9InN0NCIvPiYjeGE7CTxwYXRoIGQ9Ik0xNzcuNCwzMy43YzAsMC0xLjUtMS43LDAuOS0xLjJoMC4yYzAuMiwwLDAuNCwwLDAuNSwwLjJjMC4yLDAuNSwwLjQsMC44LDAuOSwwLjljMCwwLDAuNSwwLjIsMS40LDAuMiYjMTA7JiM5OyYjOTtjMCwwLTAuMiwwLjYtMC43LDFjMCwwLTAuNSwwLjItMC40LDFjMCwwLTAuNCwwLjItMC45LTAuMmMwLDAtMC43LTAuMi0wLjcsMC40YzAsMCwwLjYtMC4yLDAuOCwwLjFjMCwwLTAuOCwwLjItMC40LDAuOSYjMTA7JiM5OyYjOTtjMCwwLDAuNiwwLjIsMS4zLTAuN2MwLDAsMC4yLDAuMSwwLjIsMC4yYzAsMC0wLjgsMC4yLDAuNSwxLjJjMCwwLTAuMi0xLDAuMi0xYzAsMCwwLjUsMC4yLDAuNywwLjdjMCwwLDAuMi0wLjcsMC40LTAuOCYjMTA7JiM5OyYjOTtjMCwwLTAuOS0wLjksMC4yLTAuN2MwLDAsMC4yLTAuMS0wLjItMC40YzAsMCwwLjUtMC4yLDAuNywwYzAsMC0wLjItMC4yLTAuMS0wLjNoMC43YzAsMC0wLjktMC40LDAuNC0wLjljMCwwLTAuNi0wLjMsMC0wLjQmIzEwOyYjOTsmIzk7YzAsMCwwLjIsMCwwLjItMC43YzAsMC0xLjksMS4xLTIuMy0xLjFjMCwwLDEuMi0wLjQsMS42LDAuN2MwLDAsMC4yLTAuMi0wLjEtMC45YzAsMCwwLjktMC40LDAuMy0yLjVjMCwwLTAuMS0wLjIsMC41LTAuNSYjMTA7JiM5OyYjOTtjMCwwLDAuOS0wLjUtMC44LTEuMWMwLDAsMC43LDAuOC0wLjEsMWMwLDAtMi0yLjQtMS00LjVjMCwwLDAuNS0xLjIsMC4yLTIuM2MtMC4yLTAuOS0xLjYtMi4xLTMuMS0xLjNjMCwwLDEuMiwwLjMsMS4xLDEuMyYjMTA7JiM5OyYjOTtjLTAuMSwwLjYtMC44LDEuNC0wLjIsMy4xYzAuMywwLjksMC45LDEuOSwxLjYsMi43YzAsMCwwLjUsMC41LDAuNywxLjFjMCwwLTAuNC0wLjItMC44LTAuMmMwLDAtMS4yLTAuMiwwLjEsMS4xJiMxMDsmIzk7JiM5O2MtMC4yLTAuMi0wLjctMC44LDAuOS0wLjRjMCwwLDEsMS45LTAuMiwyLjFjMCwwLTAuOCwwLjEtMS4zLTAuNmMwLDAtMS4xLTEuMy0xLjQtMS43YzAsMC0xLjUtMS4zLTEuNS0zLjFjMCwwLTAuMS0wLjcsMC41LTAuOSYjMTA7JiM5OyYjOTtsMCwwdi0wLjFjLTEuMy0xLjMtMC41LTItMC41LTJjMC4yLDAsMC4zLTAuMiwwLjMtMC4ycy0wLjctMC44LTAuOC0wLjljMC0wLjIsMC4zLTAuMywwLjMtMC4zbC0wLjQtMC41Yy0wLjQtMC4yLTAuNS0xLjItMC41LTEuMiYjMTA7JiM5OyYjOTtsLTAuMywwLjFjLTAuMi0wLjUtMC45LTAuOS0wLjktMC45YzAsMC41LTEsMC42LTEsMC42Yy0wLjUtMC4yLTEuMiwwLTEuMiwwYy0wLjYtMC4xLDAsMC42LDAsMC42YzAuMiwwLjQsMC45LDAuNywwLjksMC43bDAuNywwLjQmIzEwOyYjOTsmIzk7Yy0wLjEsMC4yLTAuNSwwLjEtMC41LDAuMWMtMC42LTAuNC0xLjMtMC4yLTEuMy0wLjJjLTAuNSwwLjItMC42LTAuMy0wLjYtMC4zYy0wLjQsMC43LDAuOSwwLjcsMC45LDAuN2MwLjksMCwxLjIsMC40LDEuMiwwLjQmIzEwOyYjOTsmIzk7Yy0wLjgtMC4xLTAuOCwwLjMtMC44LDAuM2MtMC42LTAuMS0wLjgsMC41LTAuOCwwLjVjLTAuNCwwLjItMC4yLDAuNy0wLjIsMC43YzAuOSwwLjksMC4xLDAuNy0wLjcsMC41bC0wLjUtMC4yJiMxMDsmIzk7JiM5O2MwLjItMC43LTAuNi0yLTAuNi0yYy0xLjEtMS42LTAuNi0xLjktMC42LTEuOWMwLjctMC44LTAuMi0xLTAuMi0xYzAuMiwwLjQtMC4xLDAuNS0wLjEsMC41Yy0wLjYtMC45LTEuMi0wLjgtMS4yLTAuOCYjMTA7JiM5OyYjOTtjMC44LDAuNywwLjQsMC45LDAuNCwwLjljLTEtMC45LTEuNS0wLjUtMS41LTAuNWMwLjUsMC4xLDAuNSwwLjUsMC41LDAuNWMwLjIsMC40LDAuNSwwLjIsMC41LDAuMmMwLjUsMC40LDAsMC41LDAsMC41JiMxMDsmIzk7JiM5O2MtMC4yLTAuMi0wLjMtMC4xLTAuMy0wLjFjLTAuMiwwLTAuNSwwLTAuNSwwYzAuMiwwLjcsMS4zLDAuNiwxLjMsMC42YzAuOSwxLjMsMC4yLDEuOCwwLjIsMS44YzAuNywxLjMsMCwxLjMsMCwxLjMmIzEwOyYjOTsmIzk7YzAuNCwwLjEsMC42LDAuNCwwLjYsMC40YzAuMiwwLjUtMC41LDAuNC0wLjUsMC40YzAuNCwwLjQsMS4zLDAuNCwxLjMsMC40YzAuNSwwLjMsMC43LDAuNSwwLjgsMC41YzAuMywwLjIsMC44LDAuMywxLjMsMC4yJiMxMDsmIzk7JiM5O2MwLDAuMSwwLDAuMSwwLjEsMC4yYzAsMC0xLjQsMC45LTIuOCwwLjljMCwwLTAuMi0wLjItMC41LTAuNWMwLDAtMC41LTAuNC0wLjYsMGMwLDAsMC42LDAuMiwwLjUsMC41bC0wLjktMC4yJiMxMDsmIzk7JiM5O2MwLDAsMC4yLDAuMiwwLjIsMC4zYzAsMCwwLjIsMC40LDAuOSwwLjJjMCwwLDAuMiwwLjIsMC4xLDAuMmMwLDAtMC40LDAuMi0wLjIsMC41YzAsMCwwLjQsMCwwLjUtMC4xYzAsMCwwLjItMC4xLDAuMi0wLjNoMC40JiMxMDsmIzk7JiM5O2MwLDAsMC42LTAuMSwwLjMsMC41YzAsMCwwLjIsMC4yLDAuNS0wLjVjMCwwLDAuNC0wLjIsMC41LDAuM2MwLDAsMC4yLTAuNSwwLjctMC40YzAsMCwwLDAuMi0wLjIsMC4yYzAsMCwwLjMsMC4yLDAuNS0wLjImIzEwOyYjOTsmIzk7YzAsMCwwLjUtMC4yLDAuNSwwLjJjMCwwLDAuMi0wLjUsMC4yLTAuN2MwLDAsMC44LDAuMywwLjcsMC41YzAsMCwwLjIsMC4yLDAuNCwwLjFjMCwwLDAuOSwwLjksMiwxLjdjLTAuNiwwLTAuOSwwLTEuMSwwLjEmIzEwOyYjOTsmIzk7bC0wLjMtMC4xYzAsMC0wLjctMC4yLTAuOSwwLjJjMCwwLTAuNiwwLjMtMC4yLDEuM2MwLDAtMC4yLDAuNi0wLjUsMC4zYzAsMC0wLjYtMC40LTEuMy0wLjVjMCwwLTAuOS0wLjMtMS4xLTAuOWMwLDAtMC40LTAuNi0xLDAmIzEwOyYjOTsmIzk7YzAsMCwwLjUsMC4xLDAuNSwwLjRjMCwwLDAuMiwwLjIsMC41LDAuMmMwLDAsMC4yLDAuMiwwLjEsMC4yYzAsMC0xLjMtMC4yLTAuOSwwLjZjMCwwLDAuMi0wLjMsMC42LDAuMWMwLDAsMC40LDAuMSwwLjUtMC4yJiMxMDsmIzk7JiM5O2MwLDAsMC41LDAuMy0wLjEsMC44YzAsMCwwLjUsMC4zLDAuOS0wLjRjMCwwLDAuNSwwLjEsMC44LDAuOWMwLDAsMC41LTAuOCwwLjksMC4xYzAsMCwwLjItMC41LDAuNSwwLjNjMCwwLDAuNCwwLjIsMC43LDAmIzEwOyYjOTsmIzk7QzE3Ni41LDMzLjYsMTc2LjcsMzMuOSwxNzcuNCwzMy43eiIgY2xhc3M9InN0NSIvPiYjeGE7PC9nPiYjeGE7PGc+JiN4YTsJPGc+JiN4YTsJCTxwYXRoIGQ9Ik05OC4xLDU1LjhjLTIuMiwwLjMtMi45LDAuOC0zLDIuNGMtMC4xLDEuNC0wLjIsMi43LTAuMiw1Ljh2MTQuNWgtMkw3Ny42LDYwLjR2OC4yYzAsMy4yLDAuMSw0LjYsMC4yLDUuNyYjMTA7JiM5OyYjOTsmIzk7YzAuMSwxLjYsMC45LDIuNCwzLjYsMi42djEuM2gtOXYtMS4zYzIuMS0wLjIsMy0wLjcsMy4yLTIuNGMwLjEtMS4zLDAuMi0yLjYsMC4yLTUuOFY2MGMwLTEuMi0wLjEtMi0wLjgtMyYjMTA7JiM5OyYjOTsmIzk7Yy0wLjctMC45LTEuNS0xLTMuMS0xLjJ2LTEuM0g3OWwxMy45LDE2LjJ2LTYuNmMwLTMuMiwwLTQuNC0wLjEtNS43Yy0wLjEtMS42LTAuNy0yLjMtMy43LTIuNXYtMS4zaDlWNTUuOHoiIGNsYXNzPSJzdDIiLz4mI3hhOwkJPHBhdGggZD0iTTExMi45LDU0YzYuNywwLDEyLjMsNC45LDEyLjMsMTIuMWMwLDcuOC01LjUsMTIuNy0xMi40LDEyLjdjLTcuMywwLTEyLjYtNS4zLTEyLjYtMTIuNCYjMTA7JiM5OyYjOTsmIzk7QzEwMC4xLDYwLjEsMTA0LjUsNTQsMTEyLjksNTR6IE0xMTIuMyw1NS42Yy0zLjcsMC02LjUsMy42LTYuNSwxMC4xYzAsNi4yLDIuNCwxMS41LDcuNCwxMS41YzMuNSwwLDYuMi0zLjQsNi4yLTEwJiMxMDsmIzk7JiM5OyYjOTtDMTE5LjQsNTkuOSwxMTYuNSw1NS42LDExMi4zLDU1LjZ6IiBjbGFzcz0ic3QyIi8+JiN4YTsJCTxwYXRoIGQ9Ik0xNTEuMSw1NS44Yy0yLjQsMC4zLTMuMSwwLjYtNC41LDRjLTEuMSwyLjgtNC45LDExLjktNy42LDE4LjdoLTJjLTEtMi44LTUuOC0xNS40LTcuMy0xOS4yJiMxMDsmIzk7JiM5OyYjOTtjLTEuMS0yLjctMS42LTMuMy00LTMuNXYtMS4zaDExLjFsMCwxLjNjLTIuNywwLjQtMi43LDAuNi0yLjEsMi4yYzEuMSwzLjEsMy45LDEwLjYsNS4xLDEzLjhjMi4yLTUuMiw0LjItMTAuMiw1LTEyLjYmIzEwOyYjOTsmIzk7JiM5O2MwLjktMi41LDAuNy0zLjEtMi40LTMuNHYtMS4zaDguN1Y1NS44eiIgY2xhc3M9InN0MiIvPiYjeGE7CQk8cGF0aCBkPSJNMTYyLjcsNzguMnYtMS4zYzIuMy0wLjMsMi4zLTAuNywxLjgtMi4zYy0wLjQtMS4xLTAuOS0yLjctMS41LTQuMmgtNy4xYy0wLjQsMS4xLTAuOSwyLjUtMS4zLDMuNiYjMTA7JiM5OyYjOTsmIzk7Yy0wLjgsMi4zLDAuMSwyLjYsMywyLjh2MS4zaC05di0xLjNjMi4zLTAuMywyLjktMC42LDQuMS0zLjdsNy42LTE4LjlMMTYyLDU0YzIuMyw2LjMsNC44LDEyLjgsNy4yLDE4LjljMS40LDMuNCwxLjcsMy42LDQsMy45JiMxMDsmIzk7JiM5OyYjOTt2MS4zSDE2Mi43eiBNMTU5LjQsNjAuOGMtMS4xLDIuNi0yLjEsNS4xLTMsNy43aDUuOEwxNTkuNCw2MC44eiIgY2xhc3M9InN0MiIvPiYjeGE7CQk8cGF0aCBkPSJNMjAxLDcxLjhjLTAuMywxLjYtMS4zLDUuNC0xLjYsNi40aC0xOC4xdi0xLjNjMy4yLTAuMiwzLjUtMC41LDMuNS0zLjVWNTkuNGMwLTMuMS0wLjQtMy40LTMuMS0zLjZ2LTEuMyYjMTA7JiM5OyYjOTsmIzk7aDExLjR2MS4zYy0yLjgsMC4zLTMuMiwwLjUtMy4yLDMuNnYxNC4yYzAsMiwwLjEsMi45LDIuMSwzYzAuMSwwLDEuOCwwLDEuOSwwYzIuMSwwLDIuNi0wLjQsMy41LTEuNGMwLjctMC43LDEuNi0yLjMsMi4zLTMuOCYjMTA7JiM5OyYjOTsmIzk7TDIwMSw3MS44eiIgY2xhc3M9InN0MiIvPiYjeGE7CQk8cGF0aCBkPSJNMjE0LjcsNzguMnYtMS4zYzIuMy0wLjMsMi4zLTAuNywxLjgtMi4zYy0wLjQtMS4xLTAuOS0yLjctMS41LTQuMmgtNy4xYy0wLjQsMS4xLTAuOSwyLjUtMS4zLDMuNiYjMTA7JiM5OyYjOTsmIzk7Yy0wLjgsMi4zLDAuMSwyLjYsMywyLjh2MS4zaC05di0xLjNjMi4zLTAuMywyLjktMC42LDQuMS0zLjdsNy42LTE4LjlMMjE0LDU0YzIuMyw2LjMsNC44LDEyLjgsNy4yLDE4LjljMS4zLDMuNCwxLjcsMy42LDQsMy45JiMxMDsmIzk7JiM5OyYjOTt2MS4zSDIxNC43eiBNMjExLjUsNjAuOGMtMS4xLDIuNi0yLjEsNS4xLTMsNy43aDUuOEwyMTEuNSw2MC44eiIgY2xhc3M9InN0MiIvPiYjeGE7CQk8cGF0aCBkPSJNMjUxLjEsNTUuOGMtMi4yLDAuMy0yLjksMC44LTMsMi40Yy0wLjEsMS40LTAuMiwyLjctMC4yLDUuOHYxNC41aC0ybC0xNS4yLTE4LjJ2OC4yYzAsMy4yLDAuMSw0LjYsMC4yLDUuNyYjMTA7JiM5OyYjOTsmIzk7YzAuMSwxLjYsMC45LDIuNCwzLjYsMi42djEuM2gtOXYtMS4zYzIuMS0wLjIsMy0wLjcsMy4yLTIuNGMwLjEtMS4zLDAuMi0yLjYsMC4yLTUuOFY2MGMwLTEuMi0wLjEtMi0wLjgtMyYjMTA7JiM5OyYjOTsmIzk7Yy0wLjctMC45LTEuNS0xLTMuMS0xLjJ2LTEuM2g3LjFsMTMuOSwxNi4ydi02LjZjMC0zLjIsMC00LjQtMC4xLTUuN2MtMC4xLTEuNi0wLjctMi4zLTMuNy0yLjV2LTEuM2g5VjU1Ljh6IiBjbGFzcz0ic3QyIi8+JiN4YTsJCTxwYXRoIGQ9Ik0yNjQuMiw1NC41YzQuNywwLDguMSwwLjksMTAuNSwzLjFjMS45LDEuNywzLjIsNC4zLDMuMiw4YzAsNC4yLTEuOCw3LjQtNC42LDkuNWMtMi43LDItNi41LDMuMS0xMS4xLDMuMSYjMTA7JiM5OyYjOTsmIzk7SDI1M3YtMS4zYzIuOC0wLjIsMy4xLTAuNSwzLjEtMy42VjU5LjRjMC0zLjEtMC40LTMuNC0zLjEtMy42di0xLjNIMjY0LjJ6IE0yNjEuMiw3M2MwLDIuNiwwLjcsMy41LDMuMywzLjUmIzEwOyYjOTsmIzk7JiM5O2M0LjksMCw3LjgtMy40LDcuOC0xMC4zYzAtMy41LTAuOS02LjUtMi42LTguMWMtMS41LTEuNS0zLjQtMi01LjktMmMtMS4zLDAtMiwwLjMtMi4yLDAuNWMtMC4zLDAuMy0wLjQsMC45LTAuNCwyVjczeiIgY2xhc3M9InN0MiIvPiYjeGE7CTwvZz4mI3hhOzwvZz4mI3hhOzwvc3ZnPg==;" vertex="1" parent="9gPz6wlH9H_RJWPSHjjy-1">
          <mxGeometry x="5" y="130" width="220" height="59.67" as="geometry" />
        </mxCell>
      </root>
    </mxGraphModel>
  </diagram>
  <diagram id="1aILUGP0KK3x9BqniN3T" name="Home Mobile">
    <mxGraphModel dx="1050" dy="621" grid="1" gridSize="10" guides="1" tooltips="1" connect="1" arrows="1" fold="1" page="1" pageScale="1" pageWidth="850" pageHeight="1100" math="0" shadow="0">
      <root>
        <mxCell id="0" />
        <mxCell id="1" parent="0" />
        <mxCell id="4O6Lkv1R-Z3pdB5Zs7it-1" value="" style="strokeWidth=1;shadow=0;dashed=0;align=center;html=1;shape=mxgraph.mockup.containers.browserWindow;rSize=0;strokeColor=#666666;strokeColor2=#008cff;strokeColor3=#c4c4c4;mainText=,;recursiveResize=0;movable=1;resizable=1;rotatable=1;deletable=1;editable=1;locked=0;connectable=1;" vertex="1" parent="1">
          <mxGeometry x="230" y="280" width="470" height="1820" as="geometry" />
        </mxCell>
        <mxCell id="4O6Lkv1R-Z3pdB5Zs7it-2" value="Home" style="strokeWidth=1;shadow=0;dashed=0;align=center;html=1;shape=mxgraph.mockup.containers.anchor;fontSize=17;fontColor=#666666;align=left;whiteSpace=wrap;" vertex="1" parent="4O6Lkv1R-Z3pdB5Zs7it-1">
          <mxGeometry x="60" y="12" width="110" height="26" as="geometry" />
        </mxCell>
        <mxCell id="4O6Lkv1R-Z3pdB5Zs7it-3" value="https://www.draw.io" style="strokeWidth=1;shadow=0;dashed=0;align=center;html=1;shape=mxgraph.mockup.containers.anchor;rSize=0;fontSize=17;fontColor=#666666;align=left;" vertex="1" parent="4O6Lkv1R-Z3pdB5Zs7it-1">
          <mxGeometry x="130" y="60" width="250" height="26" as="geometry" />
        </mxCell>
        <mxCell id="4O6Lkv1R-Z3pdB5Zs7it-4" value="" style="rounded=0;whiteSpace=wrap;html=1;fillColor=#414042;" vertex="1" parent="4O6Lkv1R-Z3pdB5Zs7it-1">
          <mxGeometry y="110" width="470" height="270" as="geometry" />
        </mxCell>
        <mxCell id="4O6Lkv1R-Z3pdB5Zs7it-5" value="Coronavirus (COVID-19)" style="text;strokeColor=none;fillColor=none;html=1;fontSize=29;fontStyle=1;verticalAlign=middle;align=center;fontColor=#FFCC3B;" vertex="1" parent="4O6Lkv1R-Z3pdB5Zs7it-1">
          <mxGeometry x="10" y="210" width="450" height="51.25" as="geometry" />
        </mxCell>
        <mxCell id="4O6Lkv1R-Z3pdB5Zs7it-6" value="Government Response to COVID-19" style="text;html=1;strokeColor=none;fillColor=none;align=center;verticalAlign=middle;whiteSpace=wrap;rounded=0;fontStyle=0;fontSize=15;fontColor=#ffffff;" vertex="1" parent="4O6Lkv1R-Z3pdB5Zs7it-1">
          <mxGeometry x="10" y="261.25" width="450" height="22.5" as="geometry" />
        </mxCell>
        <mxCell id="4O6Lkv1R-Z3pdB5Zs7it-7" value="" style="rounded=0;whiteSpace=wrap;html=1;fillColor=#414042;" vertex="1" parent="4O6Lkv1R-Z3pdB5Zs7it-1">
          <mxGeometry y="1590" width="470" height="230" as="geometry" />
        </mxCell>
        <mxCell id="4O6Lkv1R-Z3pdB5Zs7it-8" value="Copyright Developer @ 2024" style="text;html=1;strokeColor=none;fillColor=none;align=center;verticalAlign=middle;whiteSpace=wrap;rounded=0;fontColor=#ffffff;" vertex="1" parent="4O6Lkv1R-Z3pdB5Zs7it-1">
          <mxGeometry x="140" y="1764.54" width="170" height="30" as="geometry" />
        </mxCell>
        <mxCell id="4O6Lkv1R-Z3pdB5Zs7it-13" value="" style="group" vertex="1" connectable="0" parent="4O6Lkv1R-Z3pdB5Zs7it-1">
          <mxGeometry x="92" y="1193" width="270" height="170" as="geometry" />
        </mxCell>
        <mxCell id="4O6Lkv1R-Z3pdB5Zs7it-14" value="" style="rounded=1;whiteSpace=wrap;html=1;fillColor=#647687;fontColor=#ffffff;strokeColor=none;opacity=10;" vertex="1" parent="4O6Lkv1R-Z3pdB5Zs7it-13">
          <mxGeometry width="269.9999999999999" height="170" as="geometry" />
        </mxCell>
        <mxCell id="4O6Lkv1R-Z3pdB5Zs7it-15" value="Mental Health &amp;amp; &lt;br&gt;Wellbeing" style="text;html=1;strokeColor=none;fillColor=none;align=center;verticalAlign=middle;whiteSpace=wrap;rounded=0;fontStyle=1;fontSize=14;" vertex="1" parent="4O6Lkv1R-Z3pdB5Zs7it-13">
          <mxGeometry x="4.367754111620382" y="112.81999999999994" width="262.0652466972229" height="46.36" as="geometry" />
        </mxCell>
        <mxCell id="4O6Lkv1R-Z3pdB5Zs7it-16" value="" style="shape=image;verticalLabelPosition=bottom;labelBackgroundColor=default;verticalAlign=top;aspect=fixed;imageAspect=0;image=data:image/svg+xml,PHN2ZyB4bWxuczp4bGluaz0iaHR0cDovL3d3dy53My5vcmcvMTk5OS94bGluayIgeG1sbnM9Imh0dHA6Ly93d3cudzMub3JnLzIwMDAvc3ZnIiB4bWw6c3BhY2U9InByZXNlcnZlIiBzdHlsZT0iZW5hYmxlLWJhY2tncm91bmQ6bmV3IDAgMCA4MDAgODAwOyIgdmlld0JveD0iMCAwIDgwMCA4MDAiIHk9IjBweCIgeD0iMHB4IiBpZD0iX3gzMV8tb3V0bGluZS1leHBhbmQiIHZlcnNpb249IjEuMSI+JiN4YTs8c3R5bGUgdHlwZT0idGV4dC9jc3MiPiYjeGE7CS5zdDB7ZmlsbDojMDA5NjU4O30mI3hhOwkuc3Qxe2ZpbGw6I0UwQzQ5NDt9JiN4YTsJLnN0MntmaWxsOiNGMkRBQUU7fSYjeGE7CS5zdDN7ZmlsbDojNDE0MDQyO30mI3hhOwkuc3Q0e2ZpbGw6I0QzNjc2Nzt9JiN4YTs8L3N0eWxlPiYjeGE7PHBhdGggZD0iTTM3LjUsNzc1di02Mi41YzAtNDEuNCwzMy42LTc1LDc1LTc1aDU3NWM0MS40LDAsNzUsMzMuNiw3NSw3NVY3NzVIMzcuNXoiIGNsYXNzPSJzdDAiLz4mI3hhOzxwb2x5Z29uIHBvaW50cz0iMzAwLDUzNy41IDMwMCw2MzcuNSA0MDAsNzAwIDUwMCw2MzcuNSA1MDAsNTM3LjUiIGNsYXNzPSJzdDEiLz4mI3hhOzxwYXRoIGQ9Ik01NTAsMjAwdi0xMi41SDIwMi42Yy00LjgsMC05LjUtMC40LTE0LjEtMS4zYy04LjYsMjMuOS0xMy41LDQ5LjUtMTMuNSw3Ni4zdjEwMGMwLDEyNC4zLDEwMC43LDIyNSwyMjUsMjI1JiMxMDsmIzk7czIyNS0xMDAuNywyMjUtMjI1VjI3NUM1ODMuNiwyNzUsNTUwLDI0MS40LDU1MCwyMDB6IiBjbGFzcz0ic3QyIi8+JiN4YTs8cGF0aCBkPSJNMTUwLDI3NWMtMjcuNiwwLTUwLDIyLjQtNTAsNTBzMjIuNCw1MCw1MCw1MGgyNVYyNzVIMTUweiIgY2xhc3M9InN0MSIvPiYjeGE7PHBhdGggZD0iTTY1MCwyNzVoLTI1djEwMGgyNWMyNy42LDAsNTAtMjIuNCw1MC01MFM2NzcuNiwyNzUsNjUwLDI3NXoiIGNsYXNzPSJzdDEiLz4mI3hhOzxwYXRoIGQ9Ik0yMjUsNjIuNWMtMTYsMC0yOS42LTEwLjEtMzUtMjQuM2MtNDAuMSw1LjQtNzAuMyw0Mi40LTY0LjIsODUuMmM1LjMsMzcuNCwzOS4xLDY0LjEsNzYuOSw2NC4xSDU1MFYyMDAmIzEwOyYjOTtjMCw0MS40LDMzLjYsNzUsNzUsNzV2LTEyLjVjMC0xMTAuNS04OS41LTIwMC0yMDAtMjAwSDIyNXoiIGNsYXNzPSJzdDMiLz4mI3hhOzxwYXRoIGQ9Ik0zMzcuNSw1MDBjMC0zNC41LDI4LTYyLjUsNjIuNS02Mi41czYyLjUsMjgsNjIuNSw2Mi41SDMzNy41eiIgY2xhc3M9InN0NCIvPiYjeGE7PHBvbHlnb24gcG9pbnRzPSI0NzUsMjUgNjEyLjUsMjUgNTg3LjUsMTAwIDYyNSwxMDAgNTI1LDIzNy41IDUyNSwxMTIuNSA0ODcuNSwxMTIuNSIgY2xhc3M9InN0NCIvPiYjeGE7PHBvbHlnb24gcG9pbnRzPSIyODAuNiwzNzMuNyAyNjkuNCwzNTEuMyAzMjIsMzI1IDI2OS40LDI5OC43IDI4MC42LDI3Ni4zIDM3OCwzMjUiIGNsYXNzPSJzdDMiLz4mI3hhOzxwb2x5Z29uIHBvaW50cz0iNTE5LjQsMzczLjcgNDIyLDMyNSA1MTkuNCwyNzYuMyA1MzAuNiwyOTguNyA0NzgsMzI1IDUzMC42LDM1MS4zIiBjbGFzcz0ic3QzIi8+JiN4YTs8L3N2Zz4=;" vertex="1" parent="4O6Lkv1R-Z3pdB5Zs7it-13">
          <mxGeometry x="92.88895119978423" y="27.79" width="85.0307142857143" height="85.0307142857143" as="geometry" />
        </mxCell>
        <mxCell id="4O6Lkv1R-Z3pdB5Zs7it-21" value="" style="group" vertex="1" connectable="0" parent="4O6Lkv1R-Z3pdB5Zs7it-1">
          <mxGeometry x="90" y="800" width="277" height="170" as="geometry" />
        </mxCell>
        <mxCell id="4O6Lkv1R-Z3pdB5Zs7it-22" value="" style="rounded=1;whiteSpace=wrap;html=1;fillColor=#647687;fontColor=#ffffff;strokeColor=none;opacity=10;" vertex="1" parent="4O6Lkv1R-Z3pdB5Zs7it-21">
          <mxGeometry width="276.9999999999999" height="170" as="geometry" />
        </mxCell>
        <mxCell id="4O6Lkv1R-Z3pdB5Zs7it-23" value="Symptom &amp;amp; Test" style="text;html=1;strokeColor=none;fillColor=none;align=center;verticalAlign=middle;whiteSpace=wrap;rounded=0;fontStyle=1;fontSize=14;" vertex="1" parent="4O6Lkv1R-Z3pdB5Zs7it-21">
          <mxGeometry x="4.48099218118091" y="112.82" width="268.8595308708546" height="46.36" as="geometry" />
        </mxCell>
        <mxCell id="4O6Lkv1R-Z3pdB5Zs7it-24" value="" style="shape=image;verticalLabelPosition=bottom;labelBackgroundColor=default;verticalAlign=top;aspect=fixed;imageAspect=0;image=data:image/svg+xml,PHN2ZyB4bWxuczp4bGluaz0iaHR0cDovL3d3dy53My5vcmcvMTk5OS94bGluayIgeG1sbnM9Imh0dHA6Ly93d3cudzMub3JnLzIwMDAvc3ZnIiB4bWw6c3BhY2U9InByZXNlcnZlIiBzdHlsZT0iZW5hYmxlLWJhY2tncm91bmQ6bmV3IDAgMCA4MDAgODAwOyIgdmlld0JveD0iMCAwIDgwMCA4MDAiIHk9IjBweCIgeD0iMHB4IiBpZD0iX3gzMV8tb3V0bGluZS1leHBhbmQiIHZlcnNpb249IjEuMSI+JiN4YTs8c3R5bGUgdHlwZT0idGV4dC9jc3MiPiYjeGE7CS5zdDB7b3BhY2l0eTowLjU7ZmlsbDojRkZDQzNCO30mI3hhOwkuc3Qxe2ZpbGw6I0ZGQ0MzQjt9JiN4YTsJLnN0MntmaWxsOiM0MTQwNDI7fSYjeGE7CS5zdDN7ZmlsbDojRDM2NzY3O30mI3hhOwkuc3Q0e2ZpbGw6IzAwOTY1ODt9JiN4YTsJLnN0NXtmaWxsOiNGRkZGRkY7fSYjeGE7CS5zdDZ7ZmlsbDojRTBDNDk0O30mI3hhOzwvc3R5bGU+JiN4YTs8cGF0aCBkPSJNNTAsNzc1VjYwMEwyNSw0MjVWMjYyLjVjMC0xMjQuMywxMDAuNy0yMjUsMjI1LTIyNXMyMjUsMTAwLjcsMjI1LDIyNUw1MzcuNSw0MjVoLTc1djIwMGgtMTc1djE1MEg1MHoiIGNsYXNzPSJzdDAiLz4mI3hhOzxwYXRoIGQ9Ik0yNSwyNjIuNVY0MjVoMjVjNTUuMiwwLDEwMC00NC44LDEwMC0xMDBjLTI3LjYsMC01MC0yMi40LTUwLTUwczIyLjQtNTAsNTAtNTB2LTYyLjVoMjUwYzY5LDAsMTI1LTU2LDEyNS0xMjUmIzEwOyYjOTtIMjUwQzEyNS43LDM3LjUsMjUsMTM4LjIsMjUsMjYyLjVMMjUsMjYyLjV6IiBjbGFzcz0ic3QxIi8+JiN4YTs8cGF0aCBkPSJNNDYyLjUsNTUwaC01MGMtMjcuNiwwLTUwLTIyLjQtNTAtNTBoMjVjMCwxMy44LDExLjIsMjUsMjUsMjVoNTBWNTUweiIgY2xhc3M9InN0MiIvPiYjeGE7PHBhdGggZD0iTTM2Mi41LDMzNC41Yy0yMy40LDAtNDUuMy05LjEtNjEuOS0yNS42bDE3LjctMTcuN2MxMS44LDExLjgsMjcuNSwxOC4zLDQ0LjIsMTguM3MzMi40LTYuNSw0NC4yLTE4LjMmIzEwOyYjOTtsMTcuNywxNy43QzQwNy44LDMyNS40LDM4NS45LDMzNC41LDM2Mi41LDMzNC41eiIgY2xhc3M9InN0MiIvPiYjeGE7PHBvbHlnb24gcG9pbnRzPSI2MTIuNSwzMDAgNjI1LDM4Ny41IDcwMCwzODcuNSA3MDAsMzAwIiBjbGFzcz0ic3QzIi8+JiN4YTs8cG9seWdvbiBwb2ludHM9IjU1MCwyMDAgNTUwLDMwMCA2NTAsMzAwIDY4Ny41LDQ3NSA3NzUsNDc1IDc3NSwyODcuNSA3MTIuNSwyMDAiIGNsYXNzPSJzdDIiLz4mI3hhOzxyZWN0IGhlaWdodD0iMjUiIHdpZHRoPSI3MC43IiBjbGFzcz0ic3QyIiB0cmFuc2Zvcm09Im1hdHJpeCgwLjcwNzEgLTAuNzA3MSAwLjcwNzEgMC43MDcxIDk0LjA0MjEgNDI3LjAzNjMpIiB5PSI4Ny41IiB4PSI1MjcuMSIvPiYjeGE7PHJlY3QgaGVpZ2h0PSIyNSIgd2lkdGg9IjY3LjMiIGNsYXNzPSJzdDIiIHRyYW5zZm9ybT0ibWF0cml4KDAuOTI4NiAtMC4zNzExIDAuMzcxMSAwLjkyODYgLTEzLjI1NzYgMjMxLjA0NikiIHk9IjEzNy41IiB4PSI1NjAuMSIvPiYjeGE7PHBhdGggZD0iTTc2Mi41LDY4Ny41YzAsNDguMy0zOS4yLDg3LjUtODcuNSw4Ny41cy04Ny41LTM5LjItODcuNS04Ny41UzYyNi43LDYwMCw2NzUsNjAwUzc2Mi41LDYzOS4yLDc2Mi41LDY4Ny41JiMxMDsmIzk7TDc2Mi41LDY4Ny41eiIgY2xhc3M9InN0NCIvPiYjeGE7PHBvbHlnb24gcG9pbnRzPSI2NjIuNSw3MzAuMiA2MjguNyw2OTYuMyA2NDYuMyw2NzguNyA2NjIuNSw2OTQuOCA3MTYuMiw2NDEuMiA3MzMuOCw2NTguOCIgY2xhc3M9InN0NSIvPiYjeGE7PHJlY3QgaGVpZ2h0PSIyNSIgd2lkdGg9IjI1IiBjbGFzcz0ic3QyIiB5PSI1MTIuNSIgeD0iNzEyLjUiLz4mI3hhOzxyZWN0IGhlaWdodD0iMjUiIHdpZHRoPSIyNSIgY2xhc3M9InN0MiIgeT0iNTYyLjUiIHg9IjcxMi41Ii8+JiN4YTs8cmVjdCBoZWlnaHQ9IjI1IiB3aWR0aD0iMjUiIGNsYXNzPSJzdDIiIHk9IjY3NSIgeD0iNTI1Ii8+JiN4YTs8cmVjdCBoZWlnaHQ9IjI1IiB3aWR0aD0iMjUiIGNsYXNzPSJzdDIiIHk9IjY3NSIgeD0iNDc1Ii8+JiN4YTs8cmVjdCBoZWlnaHQ9IjI1IiB3aWR0aD0iMjUiIGNsYXNzPSJzdDIiIHk9IjY3NSIgeD0iNDI1Ii8+JiN4YTs8cmVjdCBoZWlnaHQ9IjI1IiB3aWR0aD0iMjUiIGNsYXNzPSJzdDIiIHk9IjY3NSIgeD0iMzc1Ii8+JiN4YTs8cmVjdCBoZWlnaHQ9IjI1IiB3aWR0aD0iMjUiIGNsYXNzPSJzdDIiIHk9IjY3NSIgeD0iMzI1Ii8+JiN4YTs8cG9seWdvbiBwb2ludHM9IjI4Ny41LDYyNSAyMjUsNjI1IDI4Ny41LDY1MCIgY2xhc3M9InN0NiIvPiYjeGE7PC9zdmc+;" vertex="1" parent="4O6Lkv1R-Z3pdB5Zs7it-21">
          <mxGeometry x="91.75196279320569" y="19.999999999999993" width="93.5" height="93.5" as="geometry" />
        </mxCell>
        <mxCell id="4O6Lkv1R-Z3pdB5Zs7it-29" value="" style="group" vertex="1" connectable="0" parent="4O6Lkv1R-Z3pdB5Zs7it-1">
          <mxGeometry x="90" y="420" width="283.63" height="170" as="geometry" />
        </mxCell>
        <mxCell id="4O6Lkv1R-Z3pdB5Zs7it-30" value="" style="rounded=1;whiteSpace=wrap;html=1;fillColor=#647687;fontColor=#ffffff;strokeColor=none;opacity=10;" vertex="1" parent="4O6Lkv1R-Z3pdB5Zs7it-29">
          <mxGeometry width="283.63" height="170" as="geometry" />
        </mxCell>
        <mxCell id="4O6Lkv1R-Z3pdB5Zs7it-31" value="Vaccine" style="text;html=1;strokeColor=none;fillColor=none;align=center;verticalAlign=middle;whiteSpace=wrap;rounded=0;fontStyle=1;fontSize=14;" vertex="1" parent="4O6Lkv1R-Z3pdB5Zs7it-29">
          <mxGeometry x="4.588244809921812" y="117.81999999999996" width="275.2946885953087" height="38.17999999999999" as="geometry" />
        </mxCell>
        <mxCell id="4O6Lkv1R-Z3pdB5Zs7it-32" value="" style="shape=image;verticalLabelPosition=bottom;labelBackgroundColor=default;verticalAlign=top;aspect=fixed;imageAspect=0;image=data:image/svg+xml,PHN2ZyB4bWxuczp4bGluaz0iaHR0cDovL3d3dy53My5vcmcvMTk5OS94bGluayIgeG1sbnM9Imh0dHA6Ly93d3cudzMub3JnLzIwMDAvc3ZnIiB4bWw6c3BhY2U9InByZXNlcnZlIiBzdHlsZT0iZW5hYmxlLWJhY2tncm91bmQ6bmV3IDAgMCA4MDAgODAwOyIgdmlld0JveD0iMCAwIDgwMCA4MDAiIHk9IjBweCIgeD0iMHB4IiBpZD0iX3gzMV8tb3V0bGluZS1leHBhbmQiIHZlcnNpb249IjEuMSI+JiN4YTs8c3R5bGUgdHlwZT0idGV4dC9jc3MiPiYjeGE7CS5zdDB7b3BhY2l0eTowLjU7ZmlsbDojRkZDQzNCO30mI3hhOwkuc3Qxe2ZpbGw6I0ZGQ0MzQjt9JiN4YTsJLnN0MntmaWxsOiNBQTQ5NEE7fSYjeGE7CS5zdDN7ZmlsbDojRDM2NzY3O30mI3hhOwkuc3Q0e2ZpbGw6IzQxNDA0Mjt9JiN4YTsJLnN0NXtvcGFjaXR5OjAuNztmaWxsOiMwMDk2NTg7fSYjeGE7CS5zdDZ7ZmlsbDojMDA5NjU4O30mI3hhOzwvc3R5bGU+JiN4YTs8cGF0aCBkPSJNMzAwLDM2Mi41VjMwMEgxNTB2NjIuNWMtNjIuMSwwLTExMi41LDUwLjQtMTEyLjUsMTEyLjV2MzAwaDM3NVY0NzVDNDEyLjUsNDEyLjksMzYyLjEsMzYyLjUsMzAwLDM2Mi41JiMxMDsmIzk7TDMwMCwzNjIuNXoiIGNsYXNzPSJzdDAiLz4mI3hhOzxyZWN0IGhlaWdodD0iNTAiIHdpZHRoPSIyNSIgY2xhc3M9InN0MSIgeT0iNDYyLjUiIHg9IjIxMi41Ii8+JiN4YTs8cmVjdCBoZWlnaHQ9IjI1IiB3aWR0aD0iNTAiIGNsYXNzPSJzdDEiIHk9IjQ1MCIgeD0iMjAwIi8+JiN4YTs8cmVjdCBoZWlnaHQ9IjUwIiB3aWR0aD0iMjUiIGNsYXNzPSJzdDEiIHRyYW5zZm9ybT0ibWF0cml4KDAuNSAtMC44NjYgMC44NjYgMC41IC0zODUuNDU1OCAzOTQuODM1OSkiIHk9IjUwNi4yIiB4PSIxMzYuNyIvPiYjeGE7PHJlY3QgaGVpZ2h0PSIyNSIgd2lkdGg9IjUwIiBjbGFzcz0ic3QxIiB0cmFuc2Zvcm09Im1hdHJpeCgwLjQ5OTkgLTAuODY2MSAwLjg2NjEgMC40OTk5IC0zODUuNDYzNyAzNjkuOTI2MikiIHk9IjUwNi4yIiB4PSIxMDIuNiIvPiYjeGE7PHJlY3QgaGVpZ2h0PSIyNSIgd2lkdGg9IjUwIiBjbGFzcz0ic3QxIiB0cmFuc2Zvcm09Im1hdHJpeCgwLjg2NjEgLTAuNDk5OSAwLjQ5OTkgMC44NjYxIC0yODkuMzM2OSAxNTcuNDUzNykiIHk9IjYwNi4zIiB4PSIxMjQuMiIvPiYjeGE7PHJlY3QgaGVpZ2h0PSI1MCIgd2lkdGg9IjI1IiBjbGFzcz0ic3QxIiB0cmFuc2Zvcm09Im1hdHJpeCgwLjg2NiAtMC41IDAuNSAwLjg2NiAtMjk4LjUzOTggMTQ4LjM1NTEpIiB5PSI2MDYuMiIgeD0iMTE1LjEiLz4mI3hhOzxyZWN0IGhlaWdodD0iNTAiIHdpZHRoPSIyNSIgY2xhc3M9InN0MSIgeT0iNjM3LjUiIHg9IjIxMi41Ii8+JiN4YTs8cmVjdCBoZWlnaHQ9IjI1IiB3aWR0aD0iNTAiIGNsYXNzPSJzdDEiIHk9IjY3NSIgeD0iMjAwIi8+JiN4YTs8cmVjdCBoZWlnaHQ9IjUwIiB3aWR0aD0iMjUiIGNsYXNzPSJzdDEiIHRyYW5zZm9ybT0ibWF0cml4KDAuNSAtMC44NjYgMC44NjYgMC41IC0zODUuNDYxMiA1NjkuODI3KSIgeT0iNTkzLjciIHg9IjI4OC4zIi8+JiN4YTs8cmVjdCBoZWlnaHQ9IjI1IiB3aWR0aD0iNTAiIGNsYXNzPSJzdDEiIHRyYW5zZm9ybT0ibWF0cml4KDAuNDk5OSAtMC44NjYxIDAuODY2MSAwLjQ5OTkgLTM4NS40NDYzIDU5NC45Mzk1KSIgeT0iNjE4LjciIHg9IjI5Ny40Ii8+JiN4YTs8cmVjdCBoZWlnaHQ9IjI1IiB3aWR0aD0iNTAiIGNsYXNzPSJzdDEiIHRyYW5zZm9ybT0ibWF0cml4KDAuODY2MSAtMC40OTk5IDAuNDk5OSAwLjg2NjEgLTIyNS4zMDEgMjIxLjQ5ODIpIiB5PSI1MTguOCIgeD0iMjc1LjgiLz4mI3hhOzxyZWN0IGhlaWdodD0iNTAiIHdpZHRoPSIyNSIgY2xhc3M9InN0MSIgdHJhbnNmb3JtPSJtYXRyaXgoMC44NjYgLTAuNSAwLjUgMC44NjYgLTIxNi4xODUzIDIzMC43MTA5KSIgeT0iNDkzLjgiIHg9IjMwOS45Ii8+JiN4YTs8cGF0aCBkPSJNMzAwLDU3NWMwLDQxLjQtMzMuNiw3NS03NSw3NXMtNzUtMzMuNi03NS03NXMzMy42LTc1LDc1LTc1UzMwMCw1MzMuNiwzMDAsNTc1TDMwMCw1NzV6IiBjbGFzcz0ic3QyIi8+JiN4YTs8cGF0aCBkPSJNMjc1LDU3NWMwLDI3LjYtMjIuNCw1MC01MCw1MHMtNTAtMjIuNC01MC01MHMyMi40LTUwLDUwLTUwUzI3NSw1NDcuNCwyNzUsNTc1TDI3NSw1NzV6IiBjbGFzcz0ic3QzIi8+JiN4YTs8cmVjdCBoZWlnaHQ9Ijg3LjUiIHdpZHRoPSIyMjUiIGNsYXNzPSJzdDQiIHk9IjIxMi41IiB4PSIxMTIuNSIvPiYjeGE7PHJlY3QgaGVpZ2h0PSIxMDAiIHdpZHRoPSI1MCIgY2xhc3M9InN0NSIgeT0iMTg3LjUiIHg9IjY2Mi41Ii8+JiN4YTs8cmVjdCBoZWlnaHQ9IjM4Ny41IiB3aWR0aD0iMTI1IiBjbGFzcz0ic3Q2IiB5PSIyODcuNSIgeD0iNjI1Ii8+JiN4YTs8cmVjdCBoZWlnaHQ9Ijg3LjUiIHdpZHRoPSI3NSIgY2xhc3M9InN0NCIgeT0iNjc1IiB4PSI2NTAiLz4mI3hhOzxyZWN0IGhlaWdodD0iMjUiIHdpZHRoPSIxNzUiIGNsYXNzPSJzdDQiIHk9Ijc1MCIgeD0iNjAwIi8+JiN4YTs8cmVjdCBoZWlnaHQ9IjE2Mi41IiB3aWR0aD0iMjUiIGNsYXNzPSJzdDQiIHk9IjI1IiB4PSI2NzUiLz4mI3hhOzxyZWN0IGhlaWdodD0iMjUiIHdpZHRoPSIzNy41IiBjbGFzcz0ic3Q0IiB5PSIzNTAiIHg9IjcxMi41Ii8+JiN4YTs8cmVjdCBoZWlnaHQ9IjI1IiB3aWR0aD0iMzcuNSIgY2xhc3M9InN0NCIgeT0iNDAwIiB4PSI3MTIuNSIvPiYjeGE7PHJlY3QgaGVpZ2h0PSIyNSIgd2lkdGg9IjYyLjUiIGNsYXNzPSJzdDQiIHk9IjQ1MCIgeD0iNjg3LjUiLz4mI3hhOzxyZWN0IGhlaWdodD0iMjUiIHdpZHRoPSIzNy41IiBjbGFzcz0ic3Q0IiB5PSI1MDAiIHg9IjcxMi41Ii8+JiN4YTs8cmVjdCBoZWlnaHQ9IjI1IiB3aWR0aD0iMzcuNSIgY2xhc3M9InN0NCIgeT0iNTUwIiB4PSI3MTIuNSIvPiYjeGE7PHJlY3QgaGVpZ2h0PSIyNSIgd2lkdGg9IjYyLjUiIGNsYXNzPSJzdDQiIHk9IjYwMCIgeD0iNjg3LjUiLz4mI3hhOzxwYXRoIGQ9Ik02MTguOCwyMjkuM2MtNC45LTYuNi0xMC4yLTEzLjItMTUuNy0xOS40bDE4LjgtMTYuNmM2LDYuOCwxMS44LDEzLjksMTcuMSwyMS4yTDYxOC44LDIyOS4zeiBNNTg1LjgsMTkxLjgmIzEwOyYjOTtjLTYtNS43LTEyLjMtMTEuMi0xOC44LTE2LjRsMTUuNi0xOS41YzcuMSw1LjcsMTQsMTEuNywyMC41LDE3LjlMNTg1LjgsMTkxLjh6IE0xOTguMSwxODMuN2wtMTYuNS0xOC44YzYuOC01LjksMTMuOS0xMS43LDIxLjItMTcmIzEwOyYjOTtsMTQuOCwyMC4xQzIxMC45LDE3MywyMDQuMywxNzguMywxOTguMSwxODMuN3ogTTU0Ni43LDE2MC42Yy02LjktNC42LTE0LjEtOS0yMS40LTEzbDEyLTIxLjljNy45LDQuMywxNS44LDkuMSwyMy4zLDE0LjEmIzEwOyYjOTtMNTQ2LjcsMTYwLjZ6IE0yMzguNCwxNTQuMWwtMTMtMjEuNGM3LjctNC43LDE1LjgtOS4xLDIzLjgtMTMuMWwxMS4xLDIyLjRDMjUyLjksMTQ1LjgsMjQ1LjUsMTQ5LjgsMjM4LjQsMTU0LjF6IE01MDIuOCwxMzYuNiYjMTA7JiM5O2MtNy42LTMuMy0xNS41LTYuNC0yMy4zLTlsOC0yMy43YzguNiwyLjksMTcuMSw2LjIsMjUuNCw5LjhMNTAyLjgsMTM2LjZ6IE0yODMuMiwxMzJsLTkuMS0yMy4zYzguNC0zLjMsMTcuMS02LjIsMjUuOC04LjhsNywyNCYjMTA7JiM5O0MyOTksMTI2LjMsMjkxLDEyOSwyODMuMiwxMzJ6IE00NTUuNCwxMjAuNmMtOC4xLTEuOS0xNi40LTMuNi0yNC42LTQuOGwzLjctMjQuN2M5LDEuMywxOCwzLjEsMjYuNyw1LjNMNDU1LjQsMTIwLjZ6IE0zMzEuMiwxMTgmIzEwOyYjOTtsLTQuOS0yNC41YzguOS0xLjgsMTcuOS0zLjIsMjYuOS00LjFsMi43LDI0LjhDMzQ3LjcsMTE1LjEsMzM5LjQsMTE2LjQsMzMxLjIsMTE4eiBNNDA2LDExMy4xYy02LjEtMC40LTEyLjMtMC42LTE4LjUtMC42bC02LjYsMC4xJiMxMDsmIzk7bC0wLjUtMjVjOS0wLjIsMTguMiwwLDI3LjIsMC42TDQwNiwxMTMuMXoiIGNsYXNzPSJzdDQiLz4mI3hhOzxwYXRoIGQ9Ik00NDAuMiw3MDguMWwtNC4yLTI0LjdjOC4xLTEuNCwxNi4xLTMuMSwyNC01LjJsNi4zLDI0LjJDNDU3LjgsNzA0LjcsNDQ5LDcwNi42LDQ0MC4yLDcwOC4xeiBNNDkxLjksNjk0LjYmIzEwOyYjOTtsLTguMy0yMy42YzcuNi0yLjcsMTUuMy01LjgsMjIuOC05LjJsMTAuMywyMi44QzUwOC42LDY4OC4zLDUwMC4zLDY5MS43LDQ5MS45LDY5NC42eiBNNTQwLjYsNjcyLjVsLTEyLjMtMjEuOCYjMTA7JiM5O2M3LjEtNCwxNC4xLTguMywyMC45LTEzbDE0LjEsMjAuNkM1NTYsNjYzLjQsNTQ4LjMsNjY4LjIsNTQwLjYsNjcyLjV6IE01ODQuNyw2NDIuNGwtMTUuOC0xOS40YzYuMy01LjIsMTIuNS0xMC43LDE4LjQtMTYuMyYjMTA7JiM5O2wxNy40LDE4QzU5OC4zLDYzMC45LDU5MS42LDYzNi44LDU4NC43LDY0Mi40eiIgY2xhc3M9InN0NCIvPiYjeGE7PHBhdGggZD0iTTM5My43LDIzNS4yYzI2LjQtNi44LDQ3LjItMjcuNiw1NC01NGMwLjYtMi41LDQtMi41LDQuNywwYzYuOCwyNi40LDI3LjYsNDcuMiw1NCw1NGMyLjUsMC42LDIuNSw0LDAsNC43JiMxMDsmIzk7Yy0yNi41LDYuOC00Ny4yLDI3LjYtNTQsNTRjLTAuNiwyLjUtNCwyLjUtNC43LDBjLTYuOC0yNi40LTI3LjYtNDcuMi01NC01NEMzOTEuMSwyMzkuMiwzOTEuMSwyMzUuOCwzOTMuNywyMzUuMkwzOTMuNywyMzUuMnoiIGNsYXNzPSJzdDEiLz4mI3hhOzwvc3ZnPg==;" vertex="1" parent="4O6Lkv1R-Z3pdB5Zs7it-29">
          <mxGeometry x="95.78366837422486" y="25.759999999999998" width="92.06480312283868" height="92.06480312283868" as="geometry" />
        </mxCell>
        <mxCell id="4O6Lkv1R-Z3pdB5Zs7it-33" value="" style="group" vertex="1" connectable="0" parent="4O6Lkv1R-Z3pdB5Zs7it-1">
          <mxGeometry x="142.91000000000003" y="1707" width="160.99999999999994" height="48.72000000000003" as="geometry" />
        </mxCell>
        <mxCell id="4O6Lkv1R-Z3pdB5Zs7it-34" value="" style="shape=image;verticalLabelPosition=bottom;labelBackgroundColor=default;verticalAlign=top;aspect=fixed;imageAspect=0;image=data:image/svg+xml,PHN2ZyB4bWxuczp4bGluaz0iaHR0cDovL3d3dy53My5vcmcvMTk5OS94bGluayIgeG1sbnM9Imh0dHA6Ly93d3cudzMub3JnLzIwMDAvc3ZnIiB4bWw6c3BhY2U9InByZXNlcnZlIiBzdHlsZT0iZW5hYmxlLWJhY2tncm91bmQ6bmV3IDAgMCA1MTIgNTEyOyIgdmlld0JveD0iMCAwIDUxMiA1MTIiIHk9IjBweCIgeD0iMHB4IiBpZD0iTGF5ZXJfMSIgdmVyc2lvbj0iMS4xIj4mI3hhOzxzdHlsZSB0eXBlPSJ0ZXh0L2NzcyI+JiN4YTsJLnN0MHtmaWxsOiNGRkZGRkY7fSYjeGE7PC9zdHlsZT4mI3hhOzxwYXRoIGQ9Ik00OTMuNiwxMzUuM2MtNS42LTIwLjgtMjMuNi0zNy41LTQ0LjQtNDNjLTQ3LjItMTIuNS0zMzEuOC0xMy45LTM4NS45LDBjLTIwLjgsNS42LTM4LjksMjIuMi00NC40LDQzJiMxMDsmIzk7QzYuNCwxODgsNSwzMjIuNywxOC45LDM3Ni44YzUuNiwyMC44LDIzLjYsMzcuNSw0NC40LDQzYzUwLDEzLjksMzM0LjUsMTMuOSwzODUuOSwwYzIwLjgtNS42LDM4LjktMjIuMiw0NC40LTQzJiMxMDsmIzk7QzUwNi4xLDMyNi45LDUwNi4xLDE4Ni43LDQ5My42LDEzNS4zeiBNMjA2LjMsMzI5LjZWMTgyLjVsMTI5LjEsNzMuNkwyMDYuMywzMjkuNnoiIGNsYXNzPSJzdDAiLz4mI3hhOzwvc3ZnPg==;" vertex="1" parent="4O6Lkv1R-Z3pdB5Zs7it-33">
          <mxGeometry width="48.72" height="48.72" as="geometry" />
        </mxCell>
        <mxCell id="4O6Lkv1R-Z3pdB5Zs7it-35" value="" style="shape=image;verticalLabelPosition=bottom;labelBackgroundColor=default;verticalAlign=top;aspect=fixed;imageAspect=0;image=data:image/svg+xml,PHN2ZyB4bWxuczp4bGluaz0iaHR0cDovL3d3dy53My5vcmcvMTk5OS94bGluayIgeG1sbnM9Imh0dHA6Ly93d3cudzMub3JnLzIwMDAvc3ZnIiB4bWw6c3BhY2U9InByZXNlcnZlIiBzdHlsZT0iZW5hYmxlLWJhY2tncm91bmQ6bmV3IDAgMCA1MTIgNTEyOyIgdmlld0JveD0iMCAwIDUxMiA1MTIiIHk9IjBweCIgeD0iMHB4IiBpZD0iTGF5ZXJfMSIgdmVyc2lvbj0iMS4xIj4mI3hhOzxzdHlsZSB0eXBlPSJ0ZXh0L2NzcyI+JiN4YTsJLnN0MHtmaWxsOiNGRkZGRkY7fSYjeGE7PC9zdHlsZT4mI3hhOzxwYXRoIGQ9Ik01MTIsNzYuOHYzNTguNGMwLDQyLjQtMzQuNCw3Ni44LTc2LjgsNzYuOEgyOTZWMzMwaDU5LjZsMTEuNC03NGgtNzF2LTQ4YzAtMjAuMiw5LjktNDAsNDEuNy00MEgzNzB2LTYzJiMxMDsmIzk7YzAsMC0yOS4zLTUtNTcuMy01Yy01OC41LDAtOTYuNywzNS40LTk2LjcsOTkuNlYyNTZoLTY1djc0aDY1djE4Mkg3Ni44QzM0LjQsNTEyLDAsNDc3LjYsMCw0MzUuMlY3Ni44QzAsMzQuNCwzNC40LDAsNzYuOCwwaDM1OC40JiMxMDsmIzk7QzQ3Ny42LDAsNTEyLDM0LjQsNTEyLDc2Ljh6IiBjbGFzcz0ic3QwIi8+JiN4YTs8L3N2Zz4=;" vertex="1" parent="4O6Lkv1R-Z3pdB5Zs7it-33">
          <mxGeometry x="66.45000000000005" y="5.809999999999945" width="37.09" height="37.09" as="geometry" />
        </mxCell>
        <mxCell id="4O6Lkv1R-Z3pdB5Zs7it-36" value="" style="shape=image;verticalLabelPosition=bottom;labelBackgroundColor=default;verticalAlign=top;aspect=fixed;imageAspect=0;image=data:image/svg+xml,PHN2ZyB4bWxuczp4bGluaz0iaHR0cDovL3d3dy53My5vcmcvMTk5OS94bGluayIgeG1sbnM9Imh0dHA6Ly93d3cudzMub3JnLzIwMDAvc3ZnIiB4bWw6c3BhY2U9InByZXNlcnZlIiBzdHlsZT0iZW5hYmxlLWJhY2tncm91bmQ6bmV3IDAgMCA0NTUuNyA0NTUuNzsiIHZpZXdCb3g9IjAgMCA0NTUuNyA0NTUuNyIgeT0iMHB4IiB4PSIwcHgiIGlkPSJDYXBhXzEiIHZlcnNpb249IjEuMSI+JiN4YTs8c3R5bGUgdHlwZT0idGV4dC9jc3MiPiYjeGE7CS5zdDB7ZmlsbDojRkZGRkZGO30mI3hhOzwvc3R5bGU+JiN4YTs8cGF0aCBkPSJNNDE0LjksMGgtMzc0QzE4LjMsMCwwLDE4LjMsMCw0MC45djM3NGMwLDIyLjYsMTguMyw0MC45LDQwLjksNDAuOWgzNzRjMjIuNiwwLDQwLjktMTguMyw0MC45LTQwLjl2LTM3NCYjMTA7JiM5O0M0NTUuNywxOC4zLDQzNy40LDAsNDE0LjksMHogTTM2MS4zLDE2My45YzAuMSwyLjcsMC4yLDUuNCwwLjIsOC4xYzAsMTA4LjMtODcuOCwxOTYuMi0xOTYuMiwxOTYuMmMtMzguNiwwLTc0LjUtMTEuMS0xMDQuOS0zMC40JiMxMDsmIzk7YzU5LjMsOC44LDEwMS0yOC45LDEwMS0yOC45Yy01Mi44LTQuMS02My4zLTQ4LjEtNjMuMy00OC4xYzE4LjcsMy4yLDMwLjQtMS4zLDMwLjQtMS4zYy01OS41LTEzLjktNTQuNC02OC4zLTU0LjQtNjguMyYjMTA7JiM5O2MxMy44LDguMiwyOS43LDguOSwyOS43LDguOUM1MS4zLDE1My45LDg0LjMsMTA5LDg0LjMsMTA5YzU1LjEsNjYuNywxMzYsNzEuMiwxNDEuMyw3MS40Yy0xLjItNS0xLjgtMTAuMi0xLjgtMTUuNiYjMTA7JiM5O2MwLTM4LDMwLjgtNjguOCw2OC44LTY4LjhjMTkuOCwwLDM3LjcsOC40LDUwLjMsMjEuOGMzLjUtMSw2LjktMiwxMC4xLTMuMWMxOS41LTYuNSwzMy40LTEzLjksMzMuNC0xMy45JiMxMDsmIzk7Yy0zLjQsMjAuMS0yOC4yLDM3LTI5LjksMzguMmMtMC4xLDAtMC4xLDAuMS0wLjEsMC4xYzAsMCwwLjEsMCwwLjEsMGMxOS0xLjksMzguMy05LjksMzguOS0xMC4xJiMxMDsmIzk7QzM4OS40LDE0MS40LDM2NS4yLDE2MC45LDM2MS4zLDE2My45eiIgY2xhc3M9InN0MCIvPiYjeGE7PC9zdmc+;" vertex="1" parent="4O6Lkv1R-Z3pdB5Zs7it-33">
          <mxGeometry x="125.99999999999994" y="7.900000000000091" width="35" height="35" as="geometry" />
        </mxCell>
        <mxCell id="4O6Lkv1R-Z3pdB5Zs7it-37" value="" style="shape=image;verticalLabelPosition=bottom;labelBackgroundColor=default;verticalAlign=top;aspect=fixed;imageAspect=0;image=data:image/svg+xml,PHN2ZyB4bWxuczp4bGluaz0iaHR0cDovL3d3dy53My5vcmcvMTk5OS94bGluayIgeG1sbnM9Imh0dHA6Ly93d3cudzMub3JnLzIwMDAvc3ZnIiB4bWw6c3BhY2U9InByZXNlcnZlIiBzdHlsZT0iZW5hYmxlLWJhY2tncm91bmQ6bmV3IDAgMCAzNjQuNSA5OC41OyIgdmlld0JveD0iMCAwIDM2NC41IDk4LjUiIHk9IjBweCIgeD0iMHB4IiBpZD0iTGF5ZXJfMSIgdmVyc2lvbj0iMS4xIj4mI3hhOzxzdHlsZSB0eXBlPSJ0ZXh0L2NzcyI+JiN4YTsJLnN0MHtkaXNwbGF5Om5vbmU7ZmlsbDojMDAzODVCO30mI3hhOwkuc3Qxe2ZpbGw6bm9uZTt9JiN4YTsJLnN0MntmaWxsOiNGRkZGRkY7fSYjeGE7CS5zdDN7ZmlsbDojNDE0MDQyO30mI3hhOwkuc3Q0e2ZpbGw6I0ZGQ0MzQjt9JiN4YTsJLnN0NXtmaWxsOiNFMzI3MjY7fSYjeGE7PC9zdHlsZT4mI3hhOzxyZWN0IGhlaWdodD0iMTQ2LjciIHdpZHRoPSI0MTQiIGNsYXNzPSJzdDAiIHk9Ii0yOSIgeD0iLTI3Ii8+JiN4YTs8cmVjdCBoZWlnaHQ9IjE2OC4zIiB3aWR0aD0iNDM1LjQiIGNsYXNzPSJzdDEiIHk9Ii0zNi45IiB4PSItMzUuMiIvPiYjeGE7PGc+JiN4YTsJPHBhdGggZD0iTTIyNi42LDQ3LjdjMC4xLDAsMC4yLDAsMC4zLDBjLTAuMy0wLjMtMC43LTAuNy0xLjMtMS4xYy0yLjQtMi41LTguNy0xMC44LTkuMi0yNy45YzAsMC0wLjEtNi4zLTAuNi04LjImIzEwOyYjOTsmIzk7YzAsMC0xMi4yLTItMjEsMC44cy0xMCw1LjQtMjYtMC41Yy0xNS45LTYtMzkuOC00LjYtNDIuMy00LjVjMiw0LDIsNCw1LDkuMmMwLDAsMTEuMSwxOC40LDEzLDMwLjZjMC41LDMuMSwwLjYsNS42LDAuNiw1LjYmIzEwOyYjOTsmIzk7YzAuNS0wLjMsMTAuNy0zLDEwLjctM3MxMy40LTQuMiwyMC00LjljNy42LTAuOCw3LjksMS43LDE3LDEuOGM1LjIsMCw3LjItMS44LDEzLjgtMS4xbDAsMGMwLDAsNy44LDAuOSwxNS4zLDMuNyYjMTA7JiM5OyYjOTtDMjIyLjcsNDcuOSwyMjQuMSw0Ny43LDIyNi42LDQ3Ljd6IiBjbGFzcz0ic3QyIi8+JiN4YTsJPHBhdGggZD0iTTE2Ny4zLDI4LjRjMCwwLTItNC43LTMtMTAuNWMtMjEuOC0xMy0zNy43LTExLjctMzcuNy0xMS43YzIsNCwyLDQsNSw5LjJjMjQuNCw0LjQsMzMuNCwxMy4zLDMzLjQsMTMuMyYjMTA7JiM5OyYjOTtjLTEyLjYsNi0yMC40LDE3LjMtMjAuNCwxNy4zYzAuNSwzLjEsMC42LDUuNiwwLjYsNS42YzAuNS0wLjMsMTAuNy0zLDEwLjctM2M1LjYtOSwxNC43LTEyLjgsMTYuNy0xMy41JiMxMDsmIzk7JiM5O0MxNzAuOCwzMy42LDE2OC42LDMxLjUsMTY3LjMsMjguNHoiIGNsYXNzPSJzdDMiLz4mI3hhOwk8Zz4mI3hhOwkJPHBhdGggZD0iTTIyNi42LDQ3LjdjMC4xLDAsMC4yLDAsMC4zLDBsMCwwYy0yLjctMi44LTEzLjItMTAuNC0zNy41LTE5LjdjMCwwLDUuNS03LDI3LTkuM2MwLDAtMC4xLTYuMy0wLjYtOC4yJiMxMDsmIzk7JiM5OyYjOTtjMCwwLTEzLjMtMS41LTMwLjMsOWMtMC4yLDEuNS0wLjEsNC40LDEuMyw4YzAsMCwyLjIsNC42LTAuNSw4LjRjMS4zLDAuMyw5LDIsMjAuNCw4LjZjMCwwLDcuOCwwLjksMTUuMywzLjcmIzEwOyYjOTsmIzk7JiM5O0MyMjIuNyw0Ny45LDIyNC4xLDQ3LjcsMjI2LjYsNDcuN3oiIGNsYXNzPSJzdDMiLz4mI3hhOwk8L2c+JiN4YTsJPHBhdGggZD0iTTE4Ni45LDI3LjRjLTEuNC0zLjUtMS40LTYuNS0xLjMtOGwwLDBjLTAuOSwwLjItMi4zLDAuMi0yLjQsMC4yYy0yLTAuMS00LjItMC44LTQuMi0wLjgmIzEwOyYjOTsmIzk7Yy00LjMtMS4zLTctMS42LTctMS42Yy00LjUtMC41LTcuOSwwLjUtNy45LDAuNWwwLDBjMSw1LjgsMywxMC41LDMsMTAuNWMxLjMsMy4xLDMuNSw1LjMsNS40LDYuN2MyLjIsMS42LDQuMSwyLjIsNC4xLDIuMiYjMTA7JiM5OyYjOTtjMy42LDEuNSw0LjIsMi4yLDQuMiwyLjJjMi41LTAuOSw0LjItMi4xLDUuMi0zLjVjMC4xLTAuMSwwLjItMC4yLDAuMi0wLjJDMTg5LjIsMzIsMTg2LjksMjcuNCwxODYuOSwyNy40eiIgY2xhc3M9InN0NCIvPiYjeGE7CTxwYXRoIGQ9Ik0xNzcuNCwzMy43YzAsMC0xLjUtMS43LDAuOS0xLjJoMC4yYzAuMiwwLDAuNCwwLDAuNSwwLjJjMC4yLDAuNSwwLjQsMC44LDAuOSwwLjljMCwwLDAuNSwwLjIsMS40LDAuMiYjMTA7JiM5OyYjOTtjMCwwLTAuMiwwLjYtMC43LDFjMCwwLTAuNSwwLjItMC40LDFjMCwwLTAuNCwwLjItMC45LTAuMmMwLDAtMC43LTAuMi0wLjcsMC40YzAsMCwwLjYtMC4yLDAuOCwwLjFjMCwwLTAuOCwwLjItMC40LDAuOSYjMTA7JiM5OyYjOTtjMCwwLDAuNiwwLjIsMS4zLTAuN2MwLDAsMC4yLDAuMSwwLjIsMC4yYzAsMC0wLjgsMC4yLDAuNSwxLjJjMCwwLTAuMi0xLDAuMi0xYzAsMCwwLjUsMC4yLDAuNywwLjdjMCwwLDAuMi0wLjcsMC40LTAuOCYjMTA7JiM5OyYjOTtjMCwwLTAuOS0wLjksMC4yLTAuN2MwLDAsMC4yLTAuMS0wLjItMC40YzAsMCwwLjUtMC4yLDAuNywwYzAsMC0wLjItMC4yLTAuMS0wLjNoMC43YzAsMC0wLjktMC40LDAuNC0wLjljMCwwLTAuNi0wLjMsMC0wLjQmIzEwOyYjOTsmIzk7YzAsMCwwLjIsMCwwLjItMC43YzAsMC0xLjksMS4xLTIuMy0xLjFjMCwwLDEuMi0wLjQsMS42LDAuN2MwLDAsMC4yLTAuMi0wLjEtMC45YzAsMCwwLjktMC40LDAuMy0yLjVjMCwwLTAuMS0wLjIsMC41LTAuNSYjMTA7JiM5OyYjOTtjMCwwLDAuOS0wLjUtMC44LTEuMWMwLDAsMC43LDAuOC0wLjEsMWMwLDAtMi0yLjQtMS00LjVjMCwwLDAuNS0xLjIsMC4yLTIuM2MtMC4yLTAuOS0xLjYtMi4xLTMuMS0xLjNjMCwwLDEuMiwwLjMsMS4xLDEuMyYjMTA7JiM5OyYjOTtjLTAuMSwwLjYtMC44LDEuNC0wLjIsMy4xYzAuMywwLjksMC45LDEuOSwxLjYsMi43YzAsMCwwLjUsMC41LDAuNywxLjFjMCwwLTAuNC0wLjItMC44LTAuMmMwLDAtMS4yLTAuMiwwLjEsMS4xJiMxMDsmIzk7JiM5O2MtMC4yLTAuMi0wLjctMC44LDAuOS0wLjRjMCwwLDEsMS45LTAuMiwyLjFjMCwwLTAuOCwwLjEtMS4zLTAuNmMwLDAtMS4xLTEuMy0xLjQtMS43YzAsMC0xLjUtMS4zLTEuNS0zLjFjMCwwLTAuMS0wLjcsMC41LTAuOSYjMTA7JiM5OyYjOTtsMCwwdi0wLjFjLTEuMy0xLjMtMC41LTItMC41LTJjMC4yLDAsMC4zLTAuMiwwLjMtMC4ycy0wLjctMC44LTAuOC0wLjljMC0wLjIsMC4zLTAuMywwLjMtMC4zbC0wLjQtMC41Yy0wLjQtMC4yLTAuNS0xLjItMC41LTEuMiYjMTA7JiM5OyYjOTtsLTAuMywwLjFjLTAuMi0wLjUtMC45LTAuOS0wLjktMC45YzAsMC41LTEsMC42LTEsMC42Yy0wLjUtMC4yLTEuMiwwLTEuMiwwYy0wLjYtMC4xLDAsMC42LDAsMC42YzAuMiwwLjQsMC45LDAuNywwLjksMC43bDAuNywwLjQmIzEwOyYjOTsmIzk7Yy0wLjEsMC4yLTAuNSwwLjEtMC41LDAuMWMtMC42LTAuNC0xLjMtMC4yLTEuMy0wLjJjLTAuNSwwLjItMC42LTAuMy0wLjYtMC4zYy0wLjQsMC43LDAuOSwwLjcsMC45LDAuN2MwLjksMCwxLjIsMC40LDEuMiwwLjQmIzEwOyYjOTsmIzk7Yy0wLjgtMC4xLTAuOCwwLjMtMC44LDAuM2MtMC42LTAuMS0wLjgsMC41LTAuOCwwLjVjLTAuNCwwLjItMC4yLDAuNy0wLjIsMC43YzAuOSwwLjksMC4xLDAuNy0wLjcsMC41bC0wLjUtMC4yJiMxMDsmIzk7JiM5O2MwLjItMC43LTAuNi0yLTAuNi0yYy0xLjEtMS42LTAuNi0xLjktMC42LTEuOWMwLjctMC44LTAuMi0xLTAuMi0xYzAuMiwwLjQtMC4xLDAuNS0wLjEsMC41Yy0wLjYtMC45LTEuMi0wLjgtMS4yLTAuOCYjMTA7JiM5OyYjOTtjMC44LDAuNywwLjQsMC45LDAuNCwwLjljLTEtMC45LTEuNS0wLjUtMS41LTAuNWMwLjUsMC4xLDAuNSwwLjUsMC41LDAuNWMwLjIsMC40LDAuNSwwLjIsMC41LDAuMmMwLjUsMC40LDAsMC41LDAsMC41JiMxMDsmIzk7JiM5O2MtMC4yLTAuMi0wLjMtMC4xLTAuMy0wLjFjLTAuMiwwLTAuNSwwLTAuNSwwYzAuMiwwLjcsMS4zLDAuNiwxLjMsMC42YzAuOSwxLjMsMC4yLDEuOCwwLjIsMS44YzAuNywxLjMsMCwxLjMsMCwxLjMmIzEwOyYjOTsmIzk7YzAuNCwwLjEsMC42LDAuNCwwLjYsMC40YzAuMiwwLjUtMC41LDAuNC0wLjUsMC40YzAuNCwwLjQsMS4zLDAuNCwxLjMsMC40YzAuNSwwLjMsMC43LDAuNSwwLjgsMC41YzAuMywwLjIsMC44LDAuMywxLjMsMC4yJiMxMDsmIzk7JiM5O2MwLDAuMSwwLDAuMSwwLjEsMC4yYzAsMC0xLjQsMC45LTIuOCwwLjljMCwwLTAuMi0wLjItMC41LTAuNWMwLDAtMC41LTAuNC0wLjYsMGMwLDAsMC42LDAuMiwwLjUsMC41bC0wLjktMC4yJiMxMDsmIzk7JiM5O2MwLDAsMC4yLDAuMiwwLjIsMC4zYzAsMCwwLjIsMC40LDAuOSwwLjJjMCwwLDAuMiwwLjIsMC4xLDAuMmMwLDAtMC40LDAuMi0wLjIsMC41YzAsMCwwLjQsMCwwLjUtMC4xYzAsMCwwLjItMC4xLDAuMi0wLjNoMC40JiMxMDsmIzk7JiM5O2MwLDAsMC42LTAuMSwwLjMsMC41YzAsMCwwLjIsMC4yLDAuNS0wLjVjMCwwLDAuNC0wLjIsMC41LDAuM2MwLDAsMC4yLTAuNSwwLjctMC40YzAsMCwwLDAuMi0wLjIsMC4yYzAsMCwwLjMsMC4yLDAuNS0wLjImIzEwOyYjOTsmIzk7YzAsMCwwLjUtMC4yLDAuNSwwLjJjMCwwLDAuMi0wLjUsMC4yLTAuN2MwLDAsMC44LDAuMywwLjcsMC41YzAsMCwwLjIsMC4yLDAuNCwwLjFjMCwwLDAuOSwwLjksMiwxLjdjLTAuNiwwLTAuOSwwLTEuMSwwLjEmIzEwOyYjOTsmIzk7bC0wLjMtMC4xYzAsMC0wLjctMC4yLTAuOSwwLjJjMCwwLTAuNiwwLjMtMC4yLDEuM2MwLDAtMC4yLDAuNi0wLjUsMC4zYzAsMC0wLjYtMC40LTEuMy0wLjVjMCwwLTAuOS0wLjMtMS4xLTAuOWMwLDAtMC40LTAuNi0xLDAmIzEwOyYjOTsmIzk7YzAsMCwwLjUsMC4xLDAuNSwwLjRjMCwwLDAuMiwwLjIsMC41LDAuMmMwLDAsMC4yLDAuMiwwLjEsMC4yYzAsMC0xLjMtMC4yLTAuOSwwLjZjMCwwLDAuMi0wLjMsMC42LDAuMWMwLDAsMC40LDAuMSwwLjUtMC4yJiMxMDsmIzk7JiM5O2MwLDAsMC41LDAuMy0wLjEsMC44YzAsMCwwLjUsMC4zLDAuOS0wLjRjMCwwLDAuNSwwLjEsMC44LDAuOWMwLDAsMC41LTAuOCwwLjksMC4xYzAsMCwwLjItMC41LDAuNSwwLjNjMCwwLDAuNCwwLjIsMC43LDAmIzEwOyYjOTsmIzk7QzE3Ni41LDMzLjYsMTc2LjcsMzMuOSwxNzcuNCwzMy43eiIgY2xhc3M9InN0NSIvPiYjeGE7PC9nPiYjeGE7PGc+JiN4YTsJPGc+JiN4YTsJCTxwYXRoIGQ9Ik05OC4xLDU1LjhjLTIuMiwwLjMtMi45LDAuOC0zLDIuNGMtMC4xLDEuNC0wLjIsMi43LTAuMiw1Ljh2MTQuNWgtMkw3Ny42LDYwLjR2OC4yYzAsMy4yLDAuMSw0LjYsMC4yLDUuNyYjMTA7JiM5OyYjOTsmIzk7YzAuMSwxLjYsMC45LDIuNCwzLjYsMi42djEuM2gtOXYtMS4zYzIuMS0wLjIsMy0wLjcsMy4yLTIuNGMwLjEtMS4zLDAuMi0yLjYsMC4yLTUuOFY2MGMwLTEuMi0wLjEtMi0wLjgtMyYjMTA7JiM5OyYjOTsmIzk7Yy0wLjctMC45LTEuNS0xLTMuMS0xLjJ2LTEuM0g3OWwxMy45LDE2LjJ2LTYuNmMwLTMuMiwwLTQuNC0wLjEtNS43Yy0wLjEtMS42LTAuNy0yLjMtMy43LTIuNXYtMS4zaDlWNTUuOHoiIGNsYXNzPSJzdDIiLz4mI3hhOwkJPHBhdGggZD0iTTExMi45LDU0YzYuNywwLDEyLjMsNC45LDEyLjMsMTIuMWMwLDcuOC01LjUsMTIuNy0xMi40LDEyLjdjLTcuMywwLTEyLjYtNS4zLTEyLjYtMTIuNCYjMTA7JiM5OyYjOTsmIzk7QzEwMC4xLDYwLjEsMTA0LjUsNTQsMTEyLjksNTR6IE0xMTIuMyw1NS42Yy0zLjcsMC02LjUsMy42LTYuNSwxMC4xYzAsNi4yLDIuNCwxMS41LDcuNCwxMS41YzMuNSwwLDYuMi0zLjQsNi4yLTEwJiMxMDsmIzk7JiM5OyYjOTtDMTE5LjQsNTkuOSwxMTYuNSw1NS42LDExMi4zLDU1LjZ6IiBjbGFzcz0ic3QyIi8+JiN4YTsJCTxwYXRoIGQ9Ik0xNTEuMSw1NS44Yy0yLjQsMC4zLTMuMSwwLjYtNC41LDRjLTEuMSwyLjgtNC45LDExLjktNy42LDE4LjdoLTJjLTEtMi44LTUuOC0xNS40LTcuMy0xOS4yJiMxMDsmIzk7JiM5OyYjOTtjLTEuMS0yLjctMS42LTMuMy00LTMuNXYtMS4zaDExLjFsMCwxLjNjLTIuNywwLjQtMi43LDAuNi0yLjEsMi4yYzEuMSwzLjEsMy45LDEwLjYsNS4xLDEzLjhjMi4yLTUuMiw0LjItMTAuMiw1LTEyLjYmIzEwOyYjOTsmIzk7JiM5O2MwLjktMi41LDAuNy0zLjEtMi40LTMuNHYtMS4zaDguN1Y1NS44eiIgY2xhc3M9InN0MiIvPiYjeGE7CQk8cGF0aCBkPSJNMTYyLjcsNzguMnYtMS4zYzIuMy0wLjMsMi4zLTAuNywxLjgtMi4zYy0wLjQtMS4xLTAuOS0yLjctMS41LTQuMmgtNy4xYy0wLjQsMS4xLTAuOSwyLjUtMS4zLDMuNiYjMTA7JiM5OyYjOTsmIzk7Yy0wLjgsMi4zLDAuMSwyLjYsMywyLjh2MS4zaC05di0xLjNjMi4zLTAuMywyLjktMC42LDQuMS0zLjdsNy42LTE4LjlMMTYyLDU0YzIuMyw2LjMsNC44LDEyLjgsNy4yLDE4LjljMS40LDMuNCwxLjcsMy42LDQsMy45JiMxMDsmIzk7JiM5OyYjOTt2MS4zSDE2Mi43eiBNMTU5LjQsNjAuOGMtMS4xLDIuNi0yLjEsNS4xLTMsNy43aDUuOEwxNTkuNCw2MC44eiIgY2xhc3M9InN0MiIvPiYjeGE7CQk8cGF0aCBkPSJNMjAxLDcxLjhjLTAuMywxLjYtMS4zLDUuNC0xLjYsNi40aC0xOC4xdi0xLjNjMy4yLTAuMiwzLjUtMC41LDMuNS0zLjVWNTkuNGMwLTMuMS0wLjQtMy40LTMuMS0zLjZ2LTEuMyYjMTA7JiM5OyYjOTsmIzk7aDExLjR2MS4zYy0yLjgsMC4zLTMuMiwwLjUtMy4yLDMuNnYxNC4yYzAsMiwwLjEsMi45LDIuMSwzYzAuMSwwLDEuOCwwLDEuOSwwYzIuMSwwLDIuNi0wLjQsMy41LTEuNGMwLjctMC43LDEuNi0yLjMsMi4zLTMuOCYjMTA7JiM5OyYjOTsmIzk7TDIwMSw3MS44eiIgY2xhc3M9InN0MiIvPiYjeGE7CQk8cGF0aCBkPSJNMjE0LjcsNzguMnYtMS4zYzIuMy0wLjMsMi4zLTAuNywxLjgtMi4zYy0wLjQtMS4xLTAuOS0yLjctMS41LTQuMmgtNy4xYy0wLjQsMS4xLTAuOSwyLjUtMS4zLDMuNiYjMTA7JiM5OyYjOTsmIzk7Yy0wLjgsMi4zLDAuMSwyLjYsMywyLjh2MS4zaC05di0xLjNjMi4zLTAuMywyLjktMC42LDQuMS0zLjdsNy42LTE4LjlMMjE0LDU0YzIuMyw2LjMsNC44LDEyLjgsNy4yLDE4LjljMS4zLDMuNCwxLjcsMy42LDQsMy45JiMxMDsmIzk7JiM5OyYjOTt2MS4zSDIxNC43eiBNMjExLjUsNjAuOGMtMS4xLDIuNi0yLjEsNS4xLTMsNy43aDUuOEwyMTEuNSw2MC44eiIgY2xhc3M9InN0MiIvPiYjeGE7CQk8cGF0aCBkPSJNMjUxLjEsNTUuOGMtMi4yLDAuMy0yLjksMC44LTMsMi40Yy0wLjEsMS40LTAuMiwyLjctMC4yLDUuOHYxNC41aC0ybC0xNS4yLTE4LjJ2OC4yYzAsMy4yLDAuMSw0LjYsMC4yLDUuNyYjMTA7JiM5OyYjOTsmIzk7YzAuMSwxLjYsMC45LDIuNCwzLjYsMi42djEuM2gtOXYtMS4zYzIuMS0wLjIsMy0wLjcsMy4yLTIuNGMwLjEtMS4zLDAuMi0yLjYsMC4yLTUuOFY2MGMwLTEuMi0wLjEtMi0wLjgtMyYjMTA7JiM5OyYjOTsmIzk7Yy0wLjctMC45LTEuNS0xLTMuMS0xLjJ2LTEuM2g3LjFsMTMuOSwxNi4ydi02LjZjMC0zLjIsMC00LjQtMC4xLTUuN2MtMC4xLTEuNi0wLjctMi4zLTMuNy0yLjV2LTEuM2g5VjU1Ljh6IiBjbGFzcz0ic3QyIi8+JiN4YTsJCTxwYXRoIGQ9Ik0yNjQuMiw1NC41YzQuNywwLDguMSwwLjksMTAuNSwzLjFjMS45LDEuNywzLjIsNC4zLDMuMiw4YzAsNC4yLTEuOCw3LjQtNC42LDkuNWMtMi43LDItNi41LDMuMS0xMS4xLDMuMSYjMTA7JiM5OyYjOTsmIzk7SDI1M3YtMS4zYzIuOC0wLjIsMy4xLTAuNSwzLjEtMy42VjU5LjRjMC0zLjEtMC40LTMuNC0zLjEtMy42di0xLjNIMjY0LjJ6IE0yNjEuMiw3M2MwLDIuNiwwLjcsMy41LDMuMywzLjUmIzEwOyYjOTsmIzk7JiM5O2M0LjksMCw3LjgtMy40LDcuOC0xMC4zYzAtMy41LTAuOS02LjUtMi42LTguMWMtMS41LTEuNS0zLjQtMi01LjktMmMtMS4zLDAtMiwwLjMtMi4yLDAuNWMtMC4zLDAuMy0wLjQsMC45LTAuNCwyVjczeiIgY2xhc3M9InN0MiIvPiYjeGE7CTwvZz4mI3hhOzwvZz4mI3hhOzwvc3ZnPg==;" vertex="1" parent="4O6Lkv1R-Z3pdB5Zs7it-1">
          <mxGeometry x="112.5" y="130" width="245" height="66.45" as="geometry" />
        </mxCell>
        <mxCell id="4O6Lkv1R-Z3pdB5Zs7it-25" value="" style="group" vertex="1" connectable="0" parent="4O6Lkv1R-Z3pdB5Zs7it-1">
          <mxGeometry x="90" y="610" width="280" height="170" as="geometry" />
        </mxCell>
        <mxCell id="4O6Lkv1R-Z3pdB5Zs7it-26" value="" style="rounded=1;whiteSpace=wrap;html=1;fillColor=#647687;fontColor=#ffffff;strokeColor=none;opacity=10;" vertex="1" parent="4O6Lkv1R-Z3pdB5Zs7it-25">
          <mxGeometry width="279.9999999999999" height="170" as="geometry" />
        </mxCell>
        <mxCell id="4O6Lkv1R-Z3pdB5Zs7it-27" value="Protect Yourself" style="text;html=1;strokeColor=none;fillColor=none;align=center;verticalAlign=middle;whiteSpace=wrap;rounded=0;fontStyle=1;fontSize=14;" vertex="1" parent="4O6Lkv1R-Z3pdB5Zs7it-25">
          <mxGeometry x="4.529522782421136" y="112.82" width="271.7713669452682" height="46.36" as="geometry" />
        </mxCell>
        <mxCell id="4O6Lkv1R-Z3pdB5Zs7it-28" value="" style="shape=image;verticalLabelPosition=bottom;labelBackgroundColor=default;verticalAlign=top;aspect=fixed;imageAspect=0;image=data:image/svg+xml,PHN2ZyB4bWxuczp4bGluaz0iaHR0cDovL3d3dy53My5vcmcvMTk5OS94bGluayIgeG1sbnM9Imh0dHA6Ly93d3cudzMub3JnLzIwMDAvc3ZnIiB4bWw6c3BhY2U9InByZXNlcnZlIiBzdHlsZT0iZW5hYmxlLWJhY2tncm91bmQ6bmV3IDAgMCA4MDAgODAwOyIgdmlld0JveD0iMCAwIDgwMCA4MDAiIHk9IjBweCIgeD0iMHB4IiBpZD0iX3gzMV8tb3V0bGluZS1leHBhbmQiIHZlcnNpb249IjEuMSI+JiN4YTs8c3R5bGUgdHlwZT0idGV4dC9jc3MiPiYjeGE7CS5zdDB7ZmlsbDojNDE0MDQyO30mI3hhOwkuc3Qxe29wYWNpdHk6MC41MTtmaWxsOiNGRkNDM0I7fSYjeGE7CS5zdDJ7ZmlsbDojQUE0OTRBO30mI3hhOwkuc3Qze29wYWNpdHk6MC41O2ZpbGw6I0ZGQ0MzQjt9JiN4YTsJLnN0NHtmaWxsOiNGN0VFREM7fSYjeGE7CS5zdDV7ZmlsbDojMDA5NjU4O30mI3hhOwkuc3Q2e2ZpbGw6IzNBNDI0OTt9JiN4YTsJLnN0N3tmaWxsOiNFMEM0ODU7fSYjeGE7CS5zdDh7ZmlsbDojRDM2NzY3O30mI3hhOzwvc3R5bGU+JiN4YTs8cGF0aCBkPSJNNzYyLjUsNzUwdjI1aC03MjV2LTI1YzcuOC0yMy4zLDIxLjQtNDMuNSwzOS01OS4zYzE3LjgtMTUuOCwzOS41LTI3LDYzLjQtMzJsMjcuNS01LjgmIzEwOyYjOTtjNDguOCw1MC44LDEzNC44LDg0LjUsMjMyLjYsODQuNXMxODMuOS0zMy44LDIzMi42LTg0LjVsMjcuNSw1LjhDNzA4LDY2OC44LDc0Nyw3MDMuNSw3NjIuNSw3NTB6IiBjbGFzcz0ic3QwIi8+JiN4YTs8cGF0aCBkPSJNNTM5LjgsNjMzbDkyLjksMTkuNmMtNDguOCw1MC44LTEzNC43LDg0LjUtMjMyLjYsODQuNXMtMTgzLjktMzMuOC0yMzIuNi04NC41bDkyLjktMTkuNiYjMTA7JiM5O2MyMy4xLTQuOSwzOS44LTI1LjMsMzkuOC00OXYtMzNoMjAwdjMzQzUwMCw2MDcuOCw1MTYuNiw2MjguMSw1MzkuOCw2MzN6IiBjbGFzcz0ic3QxIi8+JiN4YTs8cGF0aCBkPSJNNjI1LDEzNy41aC0zMC40YzE1LjUsMjYuOCwyNS45LDU3LDI5LjIsODkuNGMwLjcsMy40LDEuMiw2LjksMS4yLDEwLjZWMjUwdjEwMHY4Ny41JiMxMDsmIzk7YzAsNzUuOSw2MS42LDEzNy41LDEzNy41LDEzNy41VjI3NUM3NjIuNSwxOTkuMSw3MDAuOSwxMzcuNSw2MjUsMTM3LjV6IiBjbGFzcz0ic3QyIi8+JiN4YTs8cGF0aCBkPSJNNjI1LDI2Mi41VjM1MGMwLDEyNC4yLTEwMC44LDIyNS0yMjUsMjI1UzE3NSw0NzQuMiwxNzUsMzUwdi04Ny41VjI1MGMwLTEyNC4yLDEwMC44LTIyNSwyMjUtMjI1JiMxMDsmIzk7YzYyLjEsMCwxMTguNCwyNS4zLDE1OS4xLDY1LjljNDAuNiw0MC44LDY1LjksOTcsNjUuOSwxNTkuMVYyNjIuNXoiIGNsYXNzPSJzdDMiLz4mI3hhOzxwYXRoIGQ9Ik01NTAsNTI1TDU1MCw1MjVjLTYuMy0yLjktOS0xMC4zLTYuMS0xNi42bDY0LjUtMTM5LjhjMi45LTYuMywxMC4zLTksMTYuNi02LjFoMGM2LjMsMi45LDksMTAuMyw2LjEsMTYuNiYjMTA7JiM5O2wtNjQuNSwxMzkuOEM1NjMuNyw1MjUuMiw1NTYuMyw1MjcuOSw1NTAsNTI1eiIgY2xhc3M9InN0NCIvPiYjeGE7PHBhdGggZD0iTTIzMy40LDUxOC45bC02NC41LTEzOS44Yy0yLjktNi4zLTAuMi0xMy43LDYuMS0xNi42aDBjNi4zLTIuOSwxMy43LTAuMiwxNi42LDYuMWw2NC41LDEzOS44JiMxMDsmIzk7YzIuOSw2LjMsMC4yLDEzLjctNi4xLDE2LjZDMjQzLjcsNTI3LjksMjM2LjMsNTI1LjIsMjMzLjQsNTE4Ljl6IiBjbGFzcz0ic3Q0Ii8+JiN4YTs8cGF0aCBkPSJNNTUwLDM3NWwtMTUwLTI1bC0xNTAsMjV2MTUwYzg4LjksNjYuNywyMTEuMSw2Ni43LDMwMCwwVjM3NXoiIGNsYXNzPSJzdDUiLz4mI3hhOzxjaXJjbGUgcj0iMjUiIGN5PSIzMTIuNSIgY3g9IjMxMi41IiBjbGFzcz0ic3Q2Ii8+JiN4YTs8Y2lyY2xlIHI9IjI1IiBjeT0iMzEyLjUiIGN4PSI0ODcuNSIgY2xhc3M9InN0NiIvPiYjeGE7PHBhdGggZD0iTTE1MCwzNTBoMjVWMjUwaC0yNWMtMjcuNiwwLTUwLDIyLjQtNTAsNTBTMTIyLjQsMzUwLDE1MCwzNTB6IiBjbGFzcz0ic3Q3Ii8+JiN4YTs8cGF0aCBkPSJNNjUwLDI1MGgtMjV2MTAwaDI1YzI3LjYsMCw1MC0yMi40LDUwLTUwUzY3Ny42LDI1MCw2NTAsMjUweiIgY2xhc3M9InN0NyIvPiYjeGE7PHBhdGggZD0iTTYyNSwyNTB2MTIuNWMtMTU4LjksMC0yODcuNS02MS41LTI4Ny41LTEzNy41YzAsNzYtNzIuNiwxMzcuNS0xNjIuNSwxMzcuNVYyNTBjMC0xMjQuMiwxMDAuOC0yMjUsMjI1LTIyNSYjMTA7JiM5O2M2Mi4xLDAsMTE4LjQsMjUuMywxNTkuMSw2NS45QzU5OS44LDEzMS42LDYyNSwxODcuOSw2MjUsMjUweiIgY2xhc3M9InN0OCIvPiYjeGE7PHBhdGggZD0iTTIzMi40LDM3My42bC01OC43LTY4LjVjLTQuNS01LjMtMy45LTEzLjEsMS4zLTE3LjZjNS4zLTQuNSwxMy4xLTMuOSwxNy42LDEuNGw1OC43LDY4LjUmIzEwOyYjOTtjNC41LDUuMywzLjksMTMuMS0xLjQsMTcuNkMyNDQuOCwzNzkuNSwyMzYuOSwzNzguOSwyMzIuNCwzNzMuNnoiIGNsYXNzPSJzdDQiLz4mI3hhOzxwYXRoIGQ9Ik01NTAsMzc1TDU1MCwzNzVjLTUuNS00LjItNi42LTEyLTIuNS0xNy41bDYwLTgwYzQuMS01LjUsMTItNi42LDE3LjUtMi41YzUuNSw0LjIsNi42LDEyLDIuNSwxNy41bC02MCw4MCYjMTA7JiM5O0M1NjMuNCwzNzgsNTU1LjUsMzc5LjIsNTUwLDM3NXoiIGNsYXNzPSJzdDQiLz4mI3hhOzxwYXRoIGQ9Ik0yNTAsNDI1TDI1MCw0MjVjLTEuMy02LjgsMy0xMy40LDkuOC0xNC43bDM4LTcuNmM2LjgtMS40LDEzLjQsMywxNC43LDkuOHMtMywxMy40LTkuOCwxNC43bC0zOCw3LjYmIzEwOyYjOTtDMjU3LjksNDM2LjIsMjUxLjMsNDMxLjgsMjUwLDQyNXoiIGNsYXNzPSJzdDYiLz4mI3hhOzxwYXRoIGQ9Ik0yOTcuOCw0OTcuM2wtMzgtNy42Yy02LjgtMS40LTExLjItOC05LjgtMTQuN2MxLjMtNi44LDcuOS0xMS4yLDE0LjctOS44bDM4LDcuNmM2LjgsMS40LDExLjIsNy45LDkuOCwxNC43JiMxMDsmIzk7QzMxMS4xLDQ5NC4zLDMwNC42LDQ5OC42LDI5Ny44LDQ5Ny4zeiIgY2xhc3M9InN0NiIvPiYjeGE7PHBhdGggZD0iTTUzNS4zLDQzNC44bC0zOC03LjZjLTYuOC0xLjQtMTEuMi04LTkuOC0xNC43YzEuNC02LjgsNy45LTExLjIsMTQuNy05LjhsMzgsNy42YzYuOCwxLjQsMTEuMSw3LjksOS44LDE0LjcmIzEwOyYjOTtDNTQ4LjYsNDMxLjgsNTQyLjEsNDM2LjEsNTM1LjMsNDM0Ljh6IiBjbGFzcz0ic3Q2Ii8+JiN4YTs8cGF0aCBkPSJNNDg3LjUsNDg3LjVMNDg3LjUsNDg3LjVjLTEuNC02LjgsMy0xMy40LDkuOC0xNC43bDM4LTcuNmM2LjgtMS40LDEzLjQsMywxNC43LDkuOHMtMywxMy40LTkuOCwxNC43bC0zOCw3LjYmIzEwOyYjOTtDNDk1LjQsNDk4LjcsNDg4LjksNDk0LjMsNDg3LjUsNDg3LjV6IiBjbGFzcz0ic3Q2Ii8+JiN4YTs8L3N2Zz4=;" vertex="1" parent="4O6Lkv1R-Z3pdB5Zs7it-25">
          <mxGeometry x="91.91792127258019" y="15.819999999999993" width="97" height="97" as="geometry" />
        </mxCell>
        <mxCell id="4O6Lkv1R-Z3pdB5Zs7it-9" value="" style="group" vertex="1" connectable="0" parent="4O6Lkv1R-Z3pdB5Zs7it-1">
          <mxGeometry x="92" y="997" width="268" height="170" as="geometry" />
        </mxCell>
        <mxCell id="4O6Lkv1R-Z3pdB5Zs7it-10" value="" style="rounded=1;whiteSpace=wrap;html=1;fillColor=#647687;fontColor=#ffffff;strokeColor=none;opacity=10;" vertex="1" parent="4O6Lkv1R-Z3pdB5Zs7it-9">
          <mxGeometry width="268" height="170" as="geometry" />
        </mxCell>
        <mxCell id="4O6Lkv1R-Z3pdB5Zs7it-11" value="Alert &amp;amp; News" style="text;html=1;strokeColor=none;fillColor=none;align=center;verticalAlign=middle;whiteSpace=wrap;rounded=0;fontStyle=1;fontSize=14;" vertex="1" parent="4O6Lkv1R-Z3pdB5Zs7it-9">
          <mxGeometry x="4.335400377460232" y="112.81999999999994" width="260.1240226476139" height="46.36" as="geometry" />
        </mxCell>
        <mxCell id="4O6Lkv1R-Z3pdB5Zs7it-12" value="" style="shape=image;verticalLabelPosition=bottom;labelBackgroundColor=default;verticalAlign=top;aspect=fixed;imageAspect=0;image=data:image/svg+xml,PHN2ZyB4bWxuczp4bGluaz0iaHR0cDovL3d3dy53My5vcmcvMTk5OS94bGluayIgeG1sbnM9Imh0dHA6Ly93d3cudzMub3JnLzIwMDAvc3ZnIiB4bWw6c3BhY2U9InByZXNlcnZlIiBzdHlsZT0iZW5hYmxlLWJhY2tncm91bmQ6bmV3IDAgMCA4MDAgODAwOyIgdmlld0JveD0iMCAwIDgwMCA4MDAiIHk9IjBweCIgeD0iMHB4IiBpZD0iX3gzMV8tb3V0bGluZS1leHBhbmQiIHZlcnNpb249IjEuMSI+JiN4YTs8c3R5bGUgdHlwZT0idGV4dC9jc3MiPiYjeGE7CS5zdDB7b3BhY2l0eTowLjM7ZmlsbDojMDA5NjU4O30mI3hhOwkuc3Qxe29wYWNpdHk6MC41O2ZpbGw6I0ZGQ0MzQjt9JiN4YTsJLnN0MntmaWxsOiMwMDk2NTg7fSYjeGE7CS5zdDN7ZmlsbDojRkZDQzNCO30mI3hhOwkuc3Q0e2ZpbGw6IzQxNDA0Mjt9JiN4YTs8L3N0eWxlPiYjeGE7PHBhdGggZD0iTTQ3NSw3NzVIMTUwYy0yNy42LDAtNTAtMjIuNC01MC01MFY3NWMwLTI3LjYsMjIuNC01MCw1MC01MGgzMjVjMjcuNiwwLDUwLDIyLjQsNTAsNTB2NjUwJiMxMDsmIzk7QzUyNSw3NTIuNiw1MDIuNiw3NzUsNDc1LDc3NUw0NzUsNzc1eiIgY2xhc3M9InN0MCIvPiYjeGE7PHBhdGggZD0iTTUyNSw2MTIuNWgyNTB2LTMwMEg2MDBWMTc1Yy00MS40LDAtNzUsMzMuNi03NSw3NVY2MTIuNXoiIGNsYXNzPSJzdDEiLz4mI3hhOzxwYXRoIGQ9Ik0xMDAsMzUwYzAsMjAuNy0xNi44LDM3LjUtMzcuNSwzNy41UzI1LDM3MC43LDI1LDM1MHMxNi44LTM3LjUsMzcuNS0zNy41UzEwMCwzMjkuMywxMDAsMzUwTDEwMCwzNTB6IiBjbGFzcz0ic3QxIi8+JiN4YTs8cGF0aCBkPSJNMTAwLDQyNWMwLDIwLjctMTYuOCwzNy41LTM3LjUsMzcuNVMyNSw0NDUuNywyNSw0MjVzMTYuOC0zNy41LDM3LjUtMzcuNVMxMDAsNDA0LjMsMTAwLDQyNUwxMDAsNDI1eiIgY2xhc3M9InN0MSIvPiYjeGE7PHBhdGggZD0iTTEwMCw1MDBjMCwyMC43LTE2LjgsMzcuNS0zNy41LDM3LjVTMjUsNTIwLjcsMjUsNTAwczE2LjgtMzcuNSwzNy41LTM3LjVTMTAwLDQ3OS4zLDEwMCw1MDBMMTAwLDUwMHoiIGNsYXNzPSJzdDEiLz4mI3hhOzxwYXRoIGQ9Ik0xMDAsNTc1YzAsMjAuNy0xNi44LDM3LjUtMzcuNSwzNy41UzI1LDU5NS43LDI1LDU3NXMxNi44LTM3LjUsMzcuNS0zNy41UzEwMCw1NTQuMywxMDAsNTc1TDEwMCw1NzV6IiBjbGFzcz0ic3QxIi8+JiN4YTs8cGF0aCBkPSJNNTI1LDEwMEgxMDBWNzVjMC0yNy42LDIyLjQtNTAsNTAtNTBoMzI1YzI3LjYsMCw1MCwyMi40LDUwLDUwVjEwMHoiIGNsYXNzPSJzdDIiLz4mI3hhOzxwYXRoIGQ9Ik0xMDAsNzAwaDQyNXYyNWMwLDI3LjYtMjIuNCw1MC01MCw1MEgxNTBjLTI3LjYsMC01MC0yMi40LTUwLTUwVjcwMHoiIGNsYXNzPSJzdDIiLz4mI3hhOzxyZWN0IGhlaWdodD0iMTAwIiB3aWR0aD0iMTI1IiBjbGFzcz0ic3QzIiB5PSIxODcuNSIgeD0iMTUwIi8+JiN4YTs8cmVjdCBoZWlnaHQ9IjEwMCIgd2lkdGg9IjEyNSIgY2xhc3M9InN0MyIgeT0iMzUwIiB4PSIzNTAiLz4mI3hhOzxyZWN0IGhlaWdodD0iMjUiIHdpZHRoPSIxNzUiIGNsYXNzPSJzdDQiIHk9IjE3NSIgeD0iMzEyLjUiLz4mI3hhOzxyZWN0IGhlaWdodD0iMjUiIHdpZHRoPSIxNzUiIGNsYXNzPSJzdDQiIHk9IjIyNSIgeD0iMzEyLjUiLz4mI3hhOzxyZWN0IGhlaWdodD0iMjUiIHdpZHRoPSIxMjUiIGNsYXNzPSJzdDQiIHk9IjI3NSIgeD0iMzEyLjUiLz4mI3hhOzxyZWN0IGhlaWdodD0iMTAwIiB3aWR0aD0iMTI1IiBjbGFzcz0ic3QzIiB5PSI1MTIuNSIgeD0iMTUwIi8+JiN4YTs8cmVjdCBoZWlnaHQ9IjI1IiB3aWR0aD0iMTc1IiBjbGFzcz0ic3Q0IiB5PSI1MDAiIHg9IjMxMi41Ii8+JiN4YTs8cmVjdCBoZWlnaHQ9IjI1IiB3aWR0aD0iMTc1IiBjbGFzcz0ic3Q0IiB5PSI1NTAiIHg9IjMxMi41Ii8+JiN4YTs8cmVjdCBoZWlnaHQ9IjI1IiB3aWR0aD0iMjUiIGNsYXNzPSJzdDQiIHk9IjYwMCIgeD0iMzEyLjUiLz4mI3hhOzxyZWN0IGhlaWdodD0iMjUiIHdpZHRoPSIxNzUiIGNsYXNzPSJzdDQiIHk9IjMzNy41IiB4PSIxMzcuNSIvPiYjeGE7PHJlY3QgaGVpZ2h0PSIyNSIgd2lkdGg9IjE3NSIgY2xhc3M9InN0NCIgeT0iMzg3LjUiIHg9IjEzNy41Ii8+JiN4YTs8cmVjdCBoZWlnaHQ9IjI1IiB3aWR0aD0iMTc1IiBjbGFzcz0ic3Q0IiB5PSI0MzcuNSIgeD0iMTM3LjUiLz4mI3hhOzxyZWN0IGhlaWdodD0iMjUiIHdpZHRoPSIyNSIgY2xhc3M9InN0NCIgeT0iMjc1IiB4PSI0NjIuNSIvPiYjeGE7PHJlY3QgaGVpZ2h0PSIyNSIgd2lkdGg9IjI1IiBjbGFzcz0ic3Q0IiB5PSI2MDAiIHg9IjM2Mi41Ii8+JiN4YTs8cmVjdCBoZWlnaHQ9IjI1IiB3aWR0aD0iMjUiIGNsYXNzPSJzdDQiIHk9IjYwMCIgeD0iNDEyLjUiLz4mI3hhOzxyZWN0IGhlaWdodD0iMjUiIHdpZHRoPSIyNSIgY2xhc3M9InN0NCIgeT0iNjAwIiB4PSI0NjIuNSIvPiYjeGE7PC9zdmc+;" vertex="1" parent="4O6Lkv1R-Z3pdB5Zs7it-9">
          <mxGeometry x="89.67104340792667" y="23.370000000000005" width="89.45" height="89.45" as="geometry" />
        </mxCell>
        <mxCell id="4O6Lkv1R-Z3pdB5Zs7it-17" value="" style="group" vertex="1" connectable="0" parent="4O6Lkv1R-Z3pdB5Zs7it-1">
          <mxGeometry x="92" y="1390" width="268" height="170" as="geometry" />
        </mxCell>
        <mxCell id="4O6Lkv1R-Z3pdB5Zs7it-18" value="" style="rounded=1;whiteSpace=wrap;html=1;fillColor=#647687;fontColor=#ffffff;strokeColor=none;opacity=10;" vertex="1" parent="4O6Lkv1R-Z3pdB5Zs7it-17">
          <mxGeometry width="267.9999999999999" height="170" as="geometry" />
        </mxCell>
        <mxCell id="4O6Lkv1R-Z3pdB5Zs7it-19" value="Travelling Guide" style="text;html=1;strokeColor=none;fillColor=none;align=center;verticalAlign=middle;whiteSpace=wrap;rounded=0;fontStyle=1;fontSize=14;" vertex="1" parent="4O6Lkv1R-Z3pdB5Zs7it-17">
          <mxGeometry x="4.33540037746023" y="112.81999999999994" width="260.12402264761386" height="46.36" as="geometry" />
        </mxCell>
        <mxCell id="4O6Lkv1R-Z3pdB5Zs7it-20" value="" style="shape=image;verticalLabelPosition=bottom;labelBackgroundColor=default;verticalAlign=top;aspect=fixed;imageAspect=0;image=data:image/svg+xml,PHN2ZyB4bWxuczp4bGluaz0iaHR0cDovL3d3dy53My5vcmcvMTk5OS94bGluayIgeG1sbnM9Imh0dHA6Ly93d3cudzMub3JnLzIwMDAvc3ZnIiB4bWw6c3BhY2U9InByZXNlcnZlIiBzdHlsZT0iZW5hYmxlLWJhY2tncm91bmQ6bmV3IDAgMCA4MDAgODAwOyIgdmlld0JveD0iMCAwIDgwMCA4MDAiIHk9IjBweCIgeD0iMHB4IiBpZD0iX3gzMV8tb3V0bGluZS1leHBhbmQiIHZlcnNpb249IjEuMSI+JiN4YTs8c3R5bGUgdHlwZT0idGV4dC9jc3MiPiYjeGE7CS5zdDB7b3BhY2l0eTowLjU7ZmlsbDojMDA5NjU4O30mI3hhOwkuc3Qxe29wYWNpdHk6MC43O2ZpbGw6IzAwOTY1ODt9JiN4YTsJLnN0MntmaWxsOiMzQTQyNDk7fSYjeGE7CS5zdDN7ZmlsbDojNDE0MDQyO30mI3hhOwkuc3Q0e2ZpbGw6I0ZGQ0MzQjt9JiN4YTs8L3N0eWxlPiYjeGE7PHBvbHlnb24gcG9pbnRzPSIzNDcuMiwzMDEuOCAyNTMuMiw0My40IDMyMy43LDE3LjggNDg4LjIsMjUwLjUiIGNsYXNzPSJzdDAiLz4mI3hhOzxwYXRoIGQ9Ik02MCwzNTMuMmw1NjQuNy0yMDUuNWMxNC4zLTUuMiwzMC4xLTMuNiw0My4xLDQuM2w0Ny44LDI5LjFjMjYtOS40LDU0LjcsMy45LDY0LjEsMjkuOSYjMTA7JiM5O2M5LjQsMjUuOS0zLjksNTQuNi0yOS45LDY0LjFMMzUwLjUsNDIwLjRsLTI2NC44LDMuM0w2MCwzNTMuMnoiIGNsYXNzPSJzdDEiLz4mI3hhOzxwb2x5Z29uIHBvaW50cz0iNjQuMiwyMTguNiAxNy4yLDIzNS43IDYwLDM1My4yIDE1NCwzMTkiIGNsYXNzPSJzdDAiLz4mI3hhOzxwb2x5Z29uIHBvaW50cz0iMzY0LjQsMzQ4LjggNDU4LjQsNjA3LjIgNTI4LjksNTgxLjYgNTA1LjMsMjk3LjUiIGNsYXNzPSJzdDAiLz4mI3hhOzxyZWN0IGhlaWdodD0iMjUiIHdpZHRoPSI2Mi41IiBjbGFzcz0ic3QyIiB0cmFuc2Zvcm09Im1hdHJpeCgwLjkzOTggLTAuMzQxNyAwLjM0MTcgMC45Mzk4IC0yMi42Mjc3IDI0MC4xMjYzKSIgeT0iMTcxLjgiIHg9IjYzOSIvPiYjeGE7PHJlY3QgaGVpZ2h0PSIyNSIgd2lkdGg9IjI1IiBjbGFzcz0ic3QyIiB0cmFuc2Zvcm09Im1hdHJpeCgwLjkzOTcgLTAuMzQxOSAwLjM0MTkgMC45Mzk3IC00MS4wNDQ3IDIwOC4zMTk0KSIgeT0iMjA4LjEiIHg9IjU1Ny45Ii8+JiN4YTs8cmVjdCBoZWlnaHQ9IjI1IiB3aWR0aD0iMjUiIGNsYXNzPSJzdDIiIHRyYW5zZm9ybT0ibWF0cml4KDAuOTM5NyAtMC4zNDE5IDAuMzQxOSAwLjkzOTcgLTQ5LjcyMzIgMTkzLjI4NDgpIiB5PSIyMjUuMiIgeD0iNTEwLjkiLz4mI3hhOzxyZWN0IGhlaWdodD0iMjUiIHdpZHRoPSIyNSIgY2xhc3M9InN0MiIgdHJhbnNmb3JtPSJtYXRyaXgoMC45Mzk3IC0wLjM0MTkgMC4zNDE5IDAuOTM5NyAtNTguNDAzNyAxNzguMjU2MSkiIHk9IjI0Mi4zIiB4PSI0NjMuOSIvPiYjeGE7PHJlY3QgaGVpZ2h0PSIyNSIgd2lkdGg9IjI1IiBjbGFzcz0ic3QyIiB0cmFuc2Zvcm09Im1hdHJpeCgwLjkzOTcgLTAuMzQxOSAwLjM0MTkgMC45Mzk3IC02Ny4wODIzIDE2My4yMjE1KSIgeT0iMjU5LjQiIHg9IjQxNyIvPiYjeGE7PHJlY3QgaGVpZ2h0PSIyNSIgd2lkdGg9IjI1IiBjbGFzcz0ic3QyIiB0cmFuc2Zvcm09Im1hdHJpeCgwLjkzOTcgLTAuMzQxOSAwLjM0MTkgMC45Mzk3IC03NS43NjA3IDE0OC4xODczKSIgeT0iMjc2LjUiIHg9IjM3MCIvPiYjeGE7PHJlY3QgaGVpZ2h0PSIyNSIgd2lkdGg9IjI1IiBjbGFzcz0ic3QyIiB0cmFuc2Zvcm09Im1hdHJpeCgwLjkzOTcgLTAuMzQxOSAwLjM0MTkgMC45Mzk3IC04NC40MzkxIDEzMy4xNTMyKSIgeT0iMjkzLjYiIHg9IjMyMyIvPiYjeGE7PHJlY3QgaGVpZ2h0PSIyNSIgd2lkdGg9IjI1IiBjbGFzcz0ic3QyIiB0cmFuc2Zvcm09Im1hdHJpeCgwLjkzOTcgLTAuMzQxOSAwLjM0MTkgMC45Mzk3IC05My4xMTc3IDExOC4xMTg1KSIgeT0iMzEwLjciIHg9IjI3NiIvPiYjeGE7PHJlY3QgaGVpZ2h0PSIyNSIgd2lkdGg9IjI1IiBjbGFzcz0ic3QyIiB0cmFuc2Zvcm09Im1hdHJpeCgwLjkzOTYgLTAuMzQyMyAwLjM0MjMgMC45Mzk2IC0xMDEuOTAxOCAxMDMuMjM0OCkiIHk9IjMyNy44IiB4PSIyMjkiLz4mI3hhOzxyZWN0IGhlaWdodD0iMjUiIHdpZHRoPSIyNSIgY2xhc3M9InN0MiIgdHJhbnNmb3JtPSJtYXRyaXgoMC45Mzk2IC0wLjM0MjMgMC4zNDIzIDAuOTM5NiAtMTEwLjU5MzYgODguMTgzMikiIHk9IjM0NC45IiB4PSIxODIiLz4mI3hhOzxwYXRoIGQ9Ik00NTAsNjc1SDIzNy41Yy00MS40LDAtNzUtMzMuNi03NS03NXMzMy42LTc1LDc1LTc1SDMyNXYyNWgtODcuNWMtMjcuNiwwLTUwLDIyLjQtNTAsNTBzMjIuNCw1MCw1MCw1MEg0NTBWNjc1JiMxMDsmIzk7eiIgY2xhc3M9InN0MyIvPiYjeGE7PHJlY3QgaGVpZ2h0PSIyNSIgd2lkdGg9IjI1IiBjbGFzcz0ic3QzIiB5PSI2NTAiIHg9IjQ3NSIvPiYjeGE7PHBhdGggZD0iTTYzMS4zLDc2Mi41SDIzNy41di0yNWgzOTMuOGMxNy4yLDAsMzEuMy0xNCwzMS4zLTMxLjNzLTE0LTMxLjMtMzEuMy0zMS4zSDUyNXYtMjVoMTA2LjMmIzEwOyYjOTtjMzEsMCw1Ni4zLDI1LjIsNTYuMyw1Ni4zUzY2Mi4zLDc2Mi41LDYzMS4zLDc2Mi41eiIgY2xhc3M9InN0MyIvPiYjeGE7PHJlY3QgaGVpZ2h0PSIyNSIgd2lkdGg9IjEyNSIgY2xhc3M9InN0MyIgeT0iNzM3LjUiIHg9Ijg3LjUiLz4mI3hhOzxjaXJjbGUgcj0iMzcuNSIgY3k9Ijc1MCIgY3g9IjYyLjUiIGNsYXNzPSJzdDQiLz4mI3hhOzxjaXJjbGUgcj0iMzcuNSIgY3k9IjUzNy41IiBjeD0iMzUwIiBjbGFzcz0ic3Q0Ii8+JiN4YTs8L3N2Zz4=;" vertex="1" parent="4O6Lkv1R-Z3pdB5Zs7it-17">
          <mxGeometry x="85.89843893232675" y="15.82000000000005" width="97" height="97" as="geometry" />
        </mxCell>
      </root>
    </mxGraphModel>
  </diagram>
</mxfile>
